<?xml version="1.0" standalone="no"?>
<!DOCTYPE svg PUBLIC "-//W3C//DTD SVG 20010904//EN"
 "http://www.w3.org/TR/2001/REC-SVG-20010904/DTD/svg10.dtd">
<svg version="1.0" xmlns="http://www.w3.org/2000/svg"
 width="200.000000pt" height="200.000000pt" viewBox="0 0 200.000000 200.000000"
 preserveAspectRatio="xMidYMid meet">
<metadata>
Created by potrace 1.14, written by Peter Selinger 2001-2017
</metadata>
<g transform="translate(0.000000,200.000000) scale(0.100000,-0.100000)"
fill="#000000" stroke="none">
<path d="M203 1881 c-26 -12 -52 -35 -70 -62 l-28 -43 0 -776 0 -777 28 -41
c57 -81 7 -77 856 -79 716 -3 755 -2 795 16 49 22 89 64 104 110 16 47 16
1186 0 1250 -6 25 -21 62 -33 81 -38 60 -266 280 -320 309 l-50 26 -620 2
c-592 3 -622 2 -662 -16z m1264 -134 c39 -21 258 -239 278 -278 15 -28 17 -97
17 -616 0 -504 -2 -587 -15 -600 -22 -22 -1472 -22 -1494 0 -13 12 -15 117
-15 746 0 538 4 736 12 746 16 20 34 20 642 18 459 -1 551 -4 575 -16z"/>
<path d="M545 1556 c-45 -20 -90 -68 -103 -113 -17 -56 -17 -830 0 -885 16
-53 84 -113 139 -122 72 -12 825 -6 861 6 51 18 86 48 108 93 19 39 20 62 20
463 0 445 -1 457 -46 508 -11 12 -37 31 -59 43 -39 21 -49 21 -465 21 -330 -1
-432 -4 -455 -14z m873 -138 c8 -8 12 -55 12 -145 l0 -133 -77 55 c-51 36 -88
55 -106 55 -24 0 -54 -24 -159 -127 -71 -71 -131 -130 -133 -131 -2 -2 -31 19
-66 46 -94 77 -109 75 -195 -18 -28 -30 -68 -73 -88 -94 l-36 -39 0 261 c0
238 2 262 18 271 26 16 814 15 830 -1z m-72 -385 l84 -58 0 -183 c0 -107 -4
-191 -10 -203 -10 -18 -26 -19 -415 -19 -452 0 -435 -3 -435 71 0 43 -7 34
159 210 l73 79 47 -39 c72 -60 96 -73 123 -66 14 4 83 65 154 136 71 71 130
129 132 129 2 0 41 -26 88 -57z"/>
</g>
</svg>
