<svg width="190" height="69" viewBox="0 0 190 69" fill="none" xmlns="http://www.w3.org/2000/svg">
<path d="M24.2883 53.4304C35.6327 53.4143 46.977 53.4143 58.3213 53.4289C58.8381 53.4289 59.0321 53.3545 59.0307 52.7553C59.009 40.9213 59.0104 29.0889 59.0263 17.255C59.0263 16.7243 58.8888 16.5974 58.3662 16.5974C47.0001 16.6134 35.6355 16.6149 24.2695 16.5945C23.6948 16.5945 23.5818 16.7549 23.5847 17.3017C23.605 23.1967 23.5978 29.0933 23.5978 34.9884C23.5978 40.9053 23.6065 46.8223 23.5833 52.7378C23.5804 53.3152 23.744 53.4304 24.2869 53.4289L24.2883 53.4304ZM50.1287 19.2132C50.6817 20.6655 50.5818 22.1688 50.4761 23.6721C50.4428 24.1372 50.3342 24.5994 50.3371 25.0616C50.3429 25.9015 49.9158 26.4658 49.26 26.8828C48.8706 27.1307 48.4522 27.3392 48.0266 27.5171C44.1105 29.1516 40.6446 31.4831 37.5393 34.3701C36.7633 35.0904 36.0655 35.8851 35.5429 36.8183C35.1433 37.5313 34.9059 38.2866 34.9073 39.1162C34.9073 41.0147 35.9019 42.152 37.7898 42.3022C40.2972 42.5019 42.6975 42.0193 44.9791 40.9768C48.0034 39.5945 50.6904 37.7237 52.972 35.2814C53.0415 35.2071 53.1211 35.1429 53.2253 35.0467C53.6075 36.0732 53.7233 37.0239 53.2688 38.0474C50.7758 43.6465 46.5586 47.0337 40.5607 48.1608C39.3533 48.3868 38.1213 48.4364 36.911 48.2118C34.0677 47.6855 32.0539 45.9605 30.6105 43.5357C29.7969 42.168 29.6956 40.656 30.1168 39.1119C30.887 36.2919 32.5244 34.01 34.4933 31.9307C34.9406 31.4583 35.375 30.9713 35.8498 30.4537H32.329C32.5591 30.2525 32.7025 30.1154 32.8574 29.9929C38.0503 25.8898 43.4909 22.1571 49.2354 18.8749C49.7971 18.5542 49.952 18.7568 50.1258 19.2118L50.1287 19.2132Z" fill="white"/>
<path d="M23.5963 13.0077C23.6398 13.8928 23.8598 14.0561 24.7111 13.8389C33.9302 11.4869 43.1492 9.13649 52.3668 6.78458C55.0799 6.09199 57.7914 5.39939 60.5016 4.69513C60.6623 4.65285 60.9779 4.71117 60.9547 4.46038C60.9214 4.09002 60.8374 3.69342 60.6565 3.37701C60.5392 3.17288 60.2337 3.37993 60.0224 3.43242C50.4776 5.86598 40.9328 8.30392 31.3894 10.7419C28.9225 11.3718 26.4556 12.006 23.9887 12.6388C23.7932 12.6884 23.5355 12.668 23.5978 13.0077H23.5963Z" fill="white"/>
<path d="M21.5724 57.7655C21.8026 58.5368 21.8055 58.547 22.5858 58.2772C22.7538 58.2189 23.0462 58.286 23.0491 57.9958C23.0057 57.8384 22.9724 57.7159 22.9362 57.5949C19.3704 45.6603 15.7975 33.7273 12.2549 21.784C12.0551 21.1104 11.7453 21.3422 11.3385 21.421C10.8231 21.5201 10.813 21.7578 10.9462 22.204C14.496 34.0554 18.0328 45.9111 21.5724 57.7669V57.7655Z" fill="white"/>
<path d="M59.9963 56.8322C59.9485 56.4603 59.879 56.0564 59.6836 55.7546C59.5765 55.5884 59.2174 55.7911 58.9814 55.8465C48.7548 58.2451 38.5295 60.6509 28.3057 63.0553C26.5236 63.4752 24.74 63.8937 22.9593 64.3195C22.7726 64.3647 22.4483 64.3136 22.4729 64.5936C22.5062 64.9625 22.5655 65.3474 22.7595 65.6813C22.7798 65.7163 22.8725 65.709 22.9275 65.7207C23.0375 65.6886 23.1374 65.6551 23.2402 65.6318C31.8671 63.6065 40.4955 61.5826 49.1225 59.5559C52.6057 58.7379 56.0889 57.9141 59.5707 57.0873C59.7357 57.048 60.031 57.1077 59.9963 56.8322Z" fill="white"/>
<path d="M72.3164 57.6501C63.6113 59.8751 54.9062 62.0973 46.1996 64.3209C42.9581 65.1491 39.7152 65.9758 36.4752 66.8128C36.3088 66.855 35.9961 66.804 36.0076 67.0344C36.0265 67.4062 36.1003 67.8043 36.2682 68.1294C36.3898 68.3642 36.6895 68.1411 36.8907 68.09C45.8232 65.8183 54.7527 63.535 63.6808 61.253C66.7384 60.4715 69.7974 59.6885 72.8521 58.8967C73.0403 58.8472 73.3631 58.923 73.34 58.4914C73.3675 57.7186 73.0663 57.4576 72.3135 57.6501H72.3164Z" fill="white"/>
<path d="M16.1029 10.6121C16.2622 10.8512 16.6053 10.6092 16.8528 10.5508C25.2554 8.58386 33.6565 6.60814 42.0576 4.63242C45.6639 3.78527 49.2702 2.93665 52.875 2.08513C53.0777 2.03701 53.3759 2.07638 53.3353 1.67248C53.3426 0.847203 53.0979 0.640153 52.2843 0.832622C43.0232 3.01102 33.7607 5.18941 24.4997 7.36781C21.7751 8.00937 19.049 8.64801 16.3259 9.29978C16.1464 9.34207 15.8221 9.27354 15.8452 9.58411C15.8727 9.93697 15.9162 10.3365 16.1015 10.615L16.1029 10.6121Z" fill="white"/>
<path d="M63.9167 56.0317C64.241 56.1688 64.6145 56.2869 64.9533 56.2563C65.2052 56.2329 65.1647 55.8465 65.2153 55.6132C67.4796 45.4066 69.7409 35.1999 72.0008 24.9932C72.4394 23.0102 72.8752 21.0258 73.324 18.9946C73.3197 18.9378 73.3486 18.7759 73.295 18.7424C72.9708 18.531 72.5813 18.4683 72.215 18.4639C71.9327 18.461 71.9863 18.8197 71.9429 19.0209C69.8118 28.6283 67.6909 38.2371 65.5657 47.846C65.004 50.3874 64.4307 52.926 63.8718 55.4689C63.8313 55.6541 63.6605 55.9253 63.9153 56.0332L63.9167 56.0317Z" fill="white"/>
<path d="M7.8162 39.4167C5.92114 36.3138 4.02897 33.2081 2.12956 30.1082C2.02967 29.9449 1.99492 29.6897 1.69814 29.6912C1.4057 29.8749 1.03509 30.009 0.820824 30.2729C0.625382 30.515 0.9627 30.7585 1.09299 30.9743C4.84114 37.1318 8.59797 43.2835 12.3533 49.4367C15.0403 53.8387 17.7287 58.2421 20.4215 62.6412C20.5228 62.8074 20.5894 63.1399 20.8095 63.0641C21.1569 62.943 21.5116 62.7404 21.7635 62.4764C21.9358 62.2956 21.6376 62.0667 21.5261 61.8815C16.9614 54.3898 12.3881 46.904 7.8162 39.4167Z" fill="white"/>
<path d="M106.553 40.7377C108.069 40.8645 109.404 40.5087 110.278 39.1206C110.775 38.3318 110.758 38.2954 109.882 38.1393C109.613 38.0912 109.34 38.0577 109.074 37.9994C108.715 37.9221 108.443 37.9265 108.291 38.3683C108.143 38.7999 107.759 39.0113 107.321 39.0886C106.358 39.2577 105.314 38.3231 105.327 37.3388C105.332 36.9904 105.543 37.0428 105.746 37.0414C106.504 37.0385 107.261 37.0414 108.02 37.0414C108.799 37.0414 109.579 37.0283 110.357 37.0472C110.687 37.056 110.797 36.9466 110.788 36.6127C110.772 36.0382 110.721 35.471 110.578 34.9169C110.103 33.0841 108.805 32.0605 106.92 32.027C105.164 31.9964 103.754 33.0783 103.263 34.8484C102.95 35.977 102.96 37.1158 103.324 38.2268C103.833 39.7855 104.954 40.6021 106.555 40.7362L106.553 40.7377ZM105.403 35.1007C105.633 34.1646 106.271 33.6615 107.169 33.749C107.939 33.8234 108.538 34.5087 108.602 35.3573C108.621 35.6095 108.55 35.6956 108.301 35.6883C107.859 35.6752 107.418 35.6839 106.976 35.6839C106.598 35.6839 106.216 35.6547 105.841 35.6912C105.332 35.7408 105.301 35.5118 105.403 35.1007Z" fill="white"/>
<path d="M132.392 51.3804C132.391 51.0873 132.345 50.7884 132.278 50.5012C131.891 48.8433 129.705 48.2324 128.223 49.3712C127.944 49.5855 127.706 49.8538 127.444 50.1031C126.704 48.5532 124.363 48.2513 122.79 49.9894C122.79 49.7473 122.772 49.6205 122.793 49.4995C122.891 48.9323 122.529 48.9658 122.148 48.96C121.766 48.9527 121.533 48.976 121.539 49.4863C121.566 51.8178 121.575 54.1493 121.534 56.4794C121.523 57.1224 121.882 57.0057 122.254 57.0203C122.661 57.0364 122.965 57.0568 122.94 56.4517C122.887 55.1613 122.926 53.8665 122.927 52.5746C122.927 52.0628 122.982 51.5568 123.181 51.0815C123.498 50.3218 124.298 49.8932 125.141 50.0127C125.879 50.1177 126.193 50.5289 126.284 51.516C126.303 51.726 126.302 51.9389 126.302 52.1517C126.302 53.5923 126.299 55.0344 126.308 56.475C126.308 56.65 126.208 56.9328 126.436 56.9751C126.781 57.0393 127.166 57.067 127.498 56.9766C127.799 56.8949 127.644 56.5377 127.651 56.3059C127.7 54.7399 127.551 53.1666 127.738 51.6064C127.862 50.558 128.717 49.9107 129.737 50.0011C130.636 50.0798 131.018 50.5857 131.027 51.761C131.039 53.3503 131.058 54.9411 131.018 56.5289C131.004 57.1516 131.382 57.0159 131.715 57.0145C132.046 57.0145 132.43 57.1545 132.417 56.5304C132.381 54.8142 132.408 53.098 132.397 51.3804H132.392Z" fill="white"/>
<path d="M112.592 38.2591C112.701 40.105 114.161 41.0688 115.981 40.6809C116.77 40.5133 117.391 40.0773 117.953 39.4809C118.095 40.1867 118.532 40.5395 119.264 40.5395C119.306 40.5395 119.35 40.5322 119.39 40.5395C120.001 40.6591 120.107 40.3587 120.098 39.8075C120.068 37.8347 120.087 35.8619 120.087 33.8891C120.087 32.1657 120.087 32.1802 118.355 32.2123C117.953 32.2196 117.865 32.3538 117.87 32.7285C117.889 33.9795 117.879 35.2306 117.869 36.4831C117.865 36.9278 117.873 37.3725 117.762 37.8114C117.56 38.5973 116.845 39.1106 116.009 39.0566C115.227 39.0056 114.868 38.5959 114.787 37.6525C114.68 36.4029 114.727 35.1504 114.723 33.8993C114.716 32.0621 114.722 32.0621 112.884 32.2225C112.864 32.224 112.842 32.2255 112.821 32.2225C112.588 32.1992 112.54 32.329 112.541 32.5317C112.553 34.4403 112.479 36.3533 112.592 38.2561V38.2591Z" fill="white"/>
<path d="M81.2937 40.5512C83.3162 40.5249 85.3386 40.5395 87.3611 40.5395C88.7769 40.5395 88.7538 40.5395 88.7712 39.131C88.7769 38.6513 88.5989 38.5915 88.1906 38.5973C86.6734 38.6192 85.1562 38.5813 83.6404 38.6207C83.1193 38.6338 83.0266 38.4559 83.031 37.9806C83.0512 35.2262 83.031 32.4719 83.0498 29.7175C83.0527 29.2903 82.9658 29.0978 82.5025 29.1416C82.0856 29.1809 81.6571 29.1809 81.2401 29.1416C80.7711 29.0978 80.6885 29.3034 80.6929 29.7248C80.7132 31.4191 80.7016 33.1149 80.7016 34.8092C80.7016 36.5254 80.7204 38.2415 80.69 39.9577C80.6813 40.4476 80.8304 40.5555 81.2937 40.5497V40.5512Z" fill="white"/>
<path d="M97.7962 40.7408C99.6175 40.9697 101.122 40.2217 101.808 38.7461C102.115 38.0861 101.909 37.6972 101.19 37.5796C100.961 37.5417 100.726 37.5242 100.506 37.4557C100.121 37.3332 99.9678 37.4498 99.8549 37.8523C99.6493 38.5901 99.1788 38.9371 98.4839 38.9531C97.7702 38.9706 97.1737 38.6936 96.9001 38.0127C96.4672 36.9351 96.4455 35.8153 96.861 34.7247C97.0927 34.1166 97.6037 33.825 98.245 33.7813C98.8039 33.7434 99.409 33.8513 99.5958 34.3908C99.8549 35.1417 100.304 35.0382 100.844 34.9113C101.07 34.8588 101.297 34.8078 101.527 34.7888C101.947 34.7553 102.041 34.6036 101.873 34.191C101.146 32.4121 99.228 31.5985 97.0941 32.1963C95.3264 32.6906 94.3318 34.21 94.3333 36.5006C94.2986 36.8374 94.3825 37.2574 94.4607 37.6715C94.785 39.3906 96.017 40.5162 97.7962 40.7393V40.7408Z" fill="white"/>
<path d="M88.6785 53.1753C88.402 53.1301 88.4541 53.4801 88.3933 53.6551C87.9257 55.0213 86.9456 55.8378 85.6427 55.9209C84.1602 56.0157 82.8848 55.38 82.3448 54.1523C81.576 52.404 81.5442 50.6003 82.3172 48.8492C82.8905 47.5529 84.0067 47.0295 85.385 47.0076C86.617 46.9886 87.6116 47.4509 88.0748 48.6188C88.347 49.3056 88.6771 49.2472 89.2431 49.1277C89.8005 49.0096 89.8005 48.8054 89.6094 48.3636C88.693 46.2406 86.4476 45.2622 83.9937 45.9373C81.6252 46.5906 80.2847 48.5386 80.276 51.4212C80.2441 51.8499 80.3237 52.353 80.4092 52.8546C80.8261 55.3406 82.2492 56.8075 84.567 57.1501C87.0556 57.5175 89.0795 56.3219 89.8396 54.0254C89.8903 53.8708 89.9786 53.604 89.9207 53.5588C89.5631 53.2818 89.1027 53.2453 88.6771 53.1768L88.6785 53.1753Z" fill="white"/>
<path d="M138.159 48.8054C137.148 48.7354 136.319 49.0926 135.595 50.0171C135.595 49.6919 135.582 49.5505 135.598 49.412C135.667 48.8156 135.231 48.995 134.932 48.9687C134.586 48.9395 134.345 48.9614 134.348 49.4499C134.369 52.837 134.371 56.2256 134.348 59.6143C134.344 60.2967 134.785 60.0648 135.114 60.0998C135.479 60.1392 135.753 60.1261 135.732 59.5982C135.692 58.5265 135.721 57.4519 135.721 56.2548C137.726 58.1358 140.549 56.8774 141.125 54.3928C141.349 53.429 141.362 52.4608 141.125 51.5C140.731 49.9033 139.621 48.9089 138.16 48.8069L138.159 48.8054ZM139.634 54.6349C139.288 55.5345 138.541 56.0726 137.672 56.0521C136.835 56.0332 136.113 55.482 135.831 54.5736C135.48 53.4509 135.482 52.3194 135.949 51.2273C136.33 50.3393 137.086 49.8523 137.91 49.9004C138.716 49.9471 139.417 50.5478 139.705 51.4533C139.86 51.9403 139.915 52.4433 139.889 52.9566C139.91 53.5325 139.844 54.0954 139.635 54.6363L139.634 54.6349Z" fill="white"/>
<path d="M163.085 54.7413C163.056 53.534 163.074 52.3267 163.046 51.1209C163.019 49.9282 162.499 49.2501 161.377 48.9644C160.313 48.6946 159.245 48.7311 158.201 49.0766C157.399 49.342 156.801 49.8553 156.548 50.6893C156.488 50.8832 156.188 51.2652 156.591 51.2871C156.969 51.3075 157.474 51.8339 157.788 51.1573C158.36 49.9282 160.128 49.498 161.208 50.3204C161.675 50.6762 161.726 51.1865 161.67 51.6954C161.617 52.159 161.159 52.0278 160.865 52.1182C160.626 52.1911 160.368 52.2086 160.122 52.2582C159.239 52.4361 158.312 52.3982 157.48 52.8152C156.54 53.2862 156.035 54.1566 156.147 55.1248C156.267 56.163 156.925 56.8556 158.004 57.0874C159.402 57.3863 160.621 56.9853 161.769 56.0478C161.833 56.284 161.865 56.405 161.9 56.5231C162.029 56.9722 162.68 57.2405 163.235 56.9955C163.628 56.822 163.222 56.5494 163.213 56.319C163.193 55.7912 163.098 55.2662 163.087 54.7399L163.085 54.7413ZM161.672 53.6594C161.745 55.6074 160.047 56.3511 158.545 56.0215C157.987 55.8991 157.617 55.5229 157.596 54.9046C157.575 54.2937 157.881 53.8723 158.456 53.7323C159.436 53.4932 160.423 53.2716 161.419 53.1199C161.913 53.0456 161.565 53.518 161.672 53.6594Z" fill="white"/>
<path d="M119.875 52.3266C119.715 50.361 118.46 48.9875 116.664 48.814C114.762 48.6303 113.217 49.7049 112.732 51.5625C112.548 52.2653 112.498 52.9856 112.583 53.7074C112.824 55.7254 113.921 56.8977 115.788 57.1543C117.556 57.3978 119.089 56.59 119.677 55.1071C119.738 54.9526 119.854 54.7907 119.762 54.6274C119.632 54.3956 118.441 54.4758 118.326 54.7222C117.969 55.4877 117.419 55.9893 116.546 56.0462C115.16 56.1366 114.019 55.059 113.966 53.6505C113.951 53.2802 114.18 53.3574 114.371 53.356C115.214 53.3501 116.058 53.3531 116.902 53.3531C117.64 53.3531 118.377 53.3531 119.115 53.3531C119.653 53.3531 119.91 53.0741 119.886 52.5161C119.883 52.452 119.881 52.3893 119.877 52.3251L119.875 52.3266ZM114.336 52.2318C113.98 52.2347 114.048 52.0145 114.077 51.8104C114.218 50.7883 115.124 49.9761 116.161 49.9367C117.281 49.8945 118.122 50.5331 118.365 51.615C118.406 51.7987 118.426 51.9868 118.464 52.2289C117.067 52.2289 115.702 52.223 114.338 52.2332L114.336 52.2318Z" fill="white"/>
<path d="M177.146 48.8038C175.317 48.7397 173.885 49.7866 173.432 51.5217C173.241 52.2493 173.237 52.99 173.29 53.7322C173.427 55.6277 174.637 56.9123 176.504 57.1602C178.278 57.3949 179.799 56.5842 180.377 55.0911C180.435 54.9424 180.575 54.7849 180.449 54.6172C180.277 54.3869 179.139 54.4889 179.006 54.7368C178.414 55.8318 177.602 56.2503 176.533 56.0112C175.533 55.7866 174.783 54.8578 174.679 53.7686C174.644 53.3997 174.793 53.3487 175.102 53.3531C175.944 53.3677 176.788 53.3589 177.631 53.3589C178.158 53.3589 178.685 53.3589 179.212 53.3589C180.252 53.3589 180.68 52.8403 180.494 51.8031C180.183 50.0578 178.854 48.868 177.147 48.8067L177.146 48.8038ZM178.767 52.2347C178.159 52.2128 177.551 52.2289 176.943 52.2289C176.335 52.2289 175.725 52.2158 175.117 52.2333C174.803 52.242 174.732 52.1399 174.774 51.8294C174.921 50.7314 175.86 49.9222 177.015 49.9338C178.11 49.9455 178.984 50.7431 179.11 51.8221C179.144 52.1093 179.1 52.2464 178.769 52.2347H178.767Z" fill="white"/>
<path d="M186.456 48.9177C183.753 48.3053 181.764 50.0098 181.774 52.9464C181.774 53.2002 181.755 53.4568 181.777 53.709C181.949 55.6891 183.216 57.0058 185.101 57.1735C186.993 57.3426 188.612 56.2636 189.047 54.5241C189.234 53.779 189.283 53.0135 189.195 52.2509C188.989 50.4794 187.979 49.2633 186.455 48.9177H186.456ZM187.439 54.8551C187.047 55.6906 186.318 56.0901 185.385 56.0507C184.451 56.0099 183.81 55.5214 183.429 54.6845C183.18 54.1363 183.119 53.5472 183.149 52.9479C183.123 52.3924 183.194 51.847 183.419 51.3367C183.789 50.4939 184.429 49.9938 185.36 49.9486C186.314 49.9005 187.057 50.3175 187.459 51.1792C188.027 52.3909 188.005 53.6522 187.439 54.8566V54.8551Z" fill="white"/>
<path d="M147.307 48.9555C145.394 48.4101 143.459 49.2646 142.764 50.9604C141.868 53.1504 142.552 55.7939 144.271 56.7242C144.546 56.8729 144.847 56.9925 145.151 57.0625C147.884 57.6909 149.863 55.9908 149.884 53.0104C149.898 50.8962 148.966 49.4294 147.307 48.9569V48.9555ZM148.236 54.6012C147.879 55.5154 147.098 56.0564 146.149 56.0535C145.199 56.0506 144.397 55.514 144.065 54.5954C143.695 53.5703 143.686 52.5205 144.036 51.4882C144.372 50.4967 145.182 49.9339 146.185 49.9426C147.136 49.9514 147.925 50.5375 148.275 51.4911C148.452 51.9737 148.511 52.4739 148.491 52.9871C148.511 53.5426 148.439 54.0836 148.236 54.6027V54.6012Z" fill="white"/>
<path d="M95.089 48.8053C93.0332 48.7178 91.5435 49.896 91.2077 51.9271C91.1194 52.4652 91.1295 53.0265 91.157 53.5748C91.2902 56.2314 93.5718 57.7989 96.0937 56.9823C97.7716 56.4385 98.5983 55.1145 98.5954 52.9522C98.5954 52.783 98.607 52.6124 98.5939 52.4433C98.4173 50.2955 97.0608 48.887 95.089 48.8039V48.8053ZM96.9667 54.5473C96.6323 55.4732 95.8505 56.0389 94.9153 56.0535C93.9207 56.0696 93.123 55.5505 92.777 54.5925C92.3991 53.5456 92.402 52.4724 92.7683 51.4255C93.0969 50.488 93.8874 49.9529 94.8342 49.9441C95.7709 49.9368 96.5845 50.4792 96.9435 51.3774C97.1491 51.8921 97.22 52.4374 97.22 52.9915C97.2128 53.5237 97.1477 54.0472 96.9667 54.5488V54.5473Z" fill="white"/>
<path d="M171.588 51.1339C171.533 49.8216 170.857 49.1436 169.583 48.8797C168.351 48.6245 167.303 48.9716 166.354 50.0506C166.354 49.6992 166.344 49.5329 166.356 49.3667C166.396 48.801 165.977 48.9978 165.703 48.9716C165.397 48.9409 165.137 48.9278 165.141 49.4002C165.161 51.7959 165.163 54.1901 165.141 56.5857C165.135 57.1908 165.538 57.0042 165.829 57.0086C166.129 57.013 166.538 57.1704 166.511 56.5741C166.477 55.8552 166.496 55.1335 166.505 54.4117C166.515 53.5223 166.453 52.6299 166.576 51.7449C166.731 50.6323 167.568 49.9383 168.682 49.9908C169.728 50.0403 170.237 50.6352 170.252 51.8775C170.268 53.2759 170.257 54.6756 170.259 56.0739C170.259 57.0829 170.336 57.1413 171.317 57.0217C171.565 56.9911 171.637 56.8963 171.634 56.6645C171.62 54.82 171.665 52.974 171.586 51.1339H171.588Z" fill="white"/>
<path d="M106.603 50.9693C106.526 49.9428 105.934 49.2283 104.949 48.9542C103.623 48.5853 102.449 48.8434 101.405 50.039C101.405 49.7153 101.391 49.5491 101.408 49.3858C101.468 48.8274 101.062 48.9834 100.779 48.9717C100.472 48.9586 100.155 48.8813 100.159 49.4121C100.181 51.8077 100.175 54.2048 100.165 56.6019C100.162 57.2683 100.645 56.9679 100.933 57.0073C101.229 57.0481 101.573 57.1166 101.546 56.5786C101.507 55.8175 101.523 55.052 101.54 54.2894C101.56 53.3795 101.449 52.4653 101.647 51.5628C101.873 50.5377 102.716 49.9151 103.778 49.9968C104.753 50.0726 105.201 50.5858 105.295 51.7523C105.316 52.006 105.31 52.2612 105.31 52.5149C105.31 53.8724 105.327 55.2299 105.301 56.5874C105.293 57.0627 105.568 57.0642 105.864 57.0087C106.152 56.9533 106.668 57.2902 106.662 56.6311C106.643 54.7443 106.743 52.8546 106.601 50.9708L106.603 50.9693Z" fill="white"/>
<path d="M111.311 55.8115C110.461 55.829 110.339 55.6919 110.329 54.8171C110.315 53.5033 110.355 52.1881 110.31 50.8773C110.289 50.2488 110.417 49.912 111.115 50.0432C111.55 50.1249 111.69 49.9441 111.687 49.4935C111.684 49.0722 111.561 48.9511 111.15 48.9599C110.257 48.9788 110.331 49.1101 110.325 48.1011C110.322 47.4945 110.325 46.8894 110.325 46.2522C109.427 46.641 108.978 47.2734 108.978 48.1492C108.978 48.1915 108.974 48.2352 108.978 48.276C109.042 48.7499 108.948 49.0678 108.362 48.973C107.917 48.9001 107.971 49.2296 107.977 49.5038C107.981 49.7662 107.896 50.1132 108.352 50.0403C108.915 49.9514 108.996 50.224 108.989 50.7213C108.967 52.3514 108.974 53.9845 109.01 55.6146C109.031 56.5216 109.526 57.0042 110.429 57.08C110.742 57.1063 111.059 57.0713 111.374 57.0756C111.731 57.0815 111.901 56.924 111.786 56.5711C111.693 56.2868 111.949 55.7983 111.311 55.8115Z" fill="white"/>
<path d="M90.3825 40.0363C90.381 40.4008 90.4375 40.586 90.8573 40.5466C91.2757 40.5072 91.7013 40.5131 92.1197 40.5466C92.4961 40.5758 92.5729 40.4212 92.5685 40.0742C92.5497 38.845 92.5613 37.6158 92.5613 36.3867C92.5613 35.5599 92.5758 34.7332 92.5569 33.9064C92.5439 33.3626 92.8002 32.6219 92.4469 32.3302C92.1139 32.0561 91.4031 32.2661 90.8631 32.218C90.4505 32.1815 90.381 32.3521 90.3825 32.7239C90.397 35.1604 90.397 37.5983 90.3825 40.0363Z" fill="white"/>
<path d="M155.427 49.0371C154.341 48.5341 153.674 48.7601 152.671 50.1147C152.671 49.7822 152.649 49.5971 152.675 49.4177C152.74 48.9613 152.466 48.9351 152.141 48.9686C151.844 48.9992 151.441 48.8053 151.446 49.4017C151.463 51.7959 151.46 54.1901 151.447 56.5842C151.444 57.2389 151.91 56.9706 152.209 57.0071C152.519 57.0435 152.831 57.0902 152.817 56.5653C152.783 55.358 152.805 54.1507 152.807 52.9419C152.807 52.3456 152.867 51.755 153.059 51.1893C153.302 50.4719 153.981 49.9995 154.629 50.2736C155.421 50.609 155.466 50.0753 155.666 49.616C155.795 49.32 155.724 49.1742 155.427 49.0371Z" fill="white"/>
<path d="M159.827 46.5875C160.286 47.7657 160.937 48.3416 162.13 47.9027C161.619 47.2699 161.13 46.64 160.614 46.0334C160.407 45.7885 159.158 45.7637 158.962 46.0057C158.464 46.624 157.998 47.2684 157.513 47.9085C158.723 48.3124 159.381 47.7569 159.825 46.5875H159.827Z" fill="white"/>
<path d="M91.4914 31.0968C92.2056 31.0968 92.5628 30.7726 92.5628 30.1242C92.5628 29.4136 92.2167 29.0583 91.5247 29.0583C90.769 29.0583 90.3912 29.4025 90.3912 30.0907C90.3912 30.7614 90.7579 31.0968 91.4914 31.0968Z" fill="white"/>
</svg>
