<svg width="191" height="69" viewBox="0 0 191 69" fill="none" xmlns="http://www.w3.org/2000/svg">
<g clip-path="url(#clip0_21_2440)">
<path d="M34.669 29.6898H36.0385C36.3427 29.6898 36.6163 29.8691 36.7385 30.1491C36.8608 30.4276 36.8055 30.7513 36.6003 30.9758C36.4489 31.1406 36.3005 31.3024 36.1549 31.4613C35.8391 31.8069 35.5408 32.1335 35.2294 32.4601C32.9925 34.8091 31.6536 36.9875 31.0132 39.3161C30.6218 40.7407 30.7615 42.0282 31.428 43.1436C32.895 45.5976 34.7971 47.009 37.2435 47.4596C37.7223 47.5485 38.2244 47.5923 38.7396 47.5923C39.3436 47.5923 39.981 47.531 40.6345 47.4085C46.4267 46.3266 50.4231 43.1626 52.852 37.7355C53.0252 37.3491 53.1009 36.97 53.0791 36.5516C50.9354 38.6498 48.4016 40.3703 45.5317 41.6753C43.4316 42.6304 41.2705 43.1144 39.1049 43.1144C38.7149 43.1144 38.319 43.0984 37.929 43.0678C35.6427 42.8855 34.33 41.4464 34.327 39.1193C34.327 38.2021 34.5672 37.3273 35.0649 36.4451C35.5728 35.5426 36.2787 34.6808 37.2188 33.8103C40.5079 30.7688 44.1302 28.4139 47.9868 26.8129C48.406 26.6394 48.7844 26.4455 49.1118 26.2384C49.6241 25.9133 49.8409 25.5648 49.838 25.0705C49.8366 24.741 49.8788 24.4333 49.9195 24.1359C49.9443 23.9551 49.9676 23.7845 49.9792 23.6212C50.0738 22.2812 50.1728 20.8974 49.7289 19.6274C44.6512 22.5218 39.591 25.9045 34.669 29.6927V29.6898Z" fill="white"/>
<path d="M23.3043 53.8314C23.623 54.1522 24.0421 54.196 24.4103 54.196H24.4161C30.0701 54.1887 35.922 54.1843 41.8089 54.1843C47.2649 54.1843 52.9233 54.1872 58.634 54.1945C58.8975 54.1945 59.3879 54.1945 59.7445 53.8358C60.069 53.5092 60.1068 53.0616 60.1054 52.7539C60.085 41.7701 60.0836 30.1593 60.101 17.2566C60.101 16.9256 60.0617 16.5057 59.7459 16.1893C59.4316 15.8728 59.0095 15.832 58.6719 15.832C52.9146 15.8408 47.246 15.8437 41.8205 15.8437C35.89 15.8437 30.0279 15.8393 24.3914 15.8291C24.0523 15.8291 23.623 15.8699 23.3014 16.1936C22.9404 16.5567 22.9419 17.0612 22.9433 17.3032C22.9593 21.9298 22.9579 26.6365 22.9564 31.1858V34.987C22.9564 36.2774 22.9564 37.5693 22.9564 38.8597C22.9579 43.4075 22.9593 48.1099 22.9404 52.7335C22.9404 53.0732 22.9783 53.5048 23.3014 53.83L23.3043 53.8314ZM23.7219 34.9885C23.7219 29.0934 23.7292 23.1969 23.7088 17.3018C23.7074 16.755 23.8195 16.5946 24.3972 16.5946C35.8231 16.6136 47.2475 16.6136 58.6733 16.5975C59.1987 16.5975 59.337 16.7229 59.337 17.2551C59.321 29.089 59.3195 40.9215 59.3413 52.7554C59.3413 53.3532 59.1478 53.429 58.6282 53.429C47.2242 53.4159 35.8202 53.4144 24.4161 53.4305C23.8704 53.4305 23.7059 53.3167 23.7088 52.7393C23.7321 46.8224 23.7234 40.9054 23.7234 34.9899L23.7219 34.9885Z" fill="white"/>
<path d="M33.0332 29.9945C32.8774 30.1169 32.7334 30.254 32.502 30.4552H36.0413C35.564 30.9728 35.1288 31.4584 34.6777 31.9323C32.697 34.0115 31.0524 36.2949 30.2782 39.1134C29.8547 40.6575 29.9566 42.1696 30.7745 43.5373C32.224 45.9621 34.2484 47.6855 37.1081 48.2134C38.3248 48.4379 39.5633 48.3883 40.777 48.1623C46.805 47.0367 51.0459 43.6481 53.552 38.049C54.0104 37.0254 53.8925 36.0733 53.5083 35.0482C53.4035 35.1445 53.3235 35.2101 53.2536 35.283C50.96 37.7238 48.2589 39.596 45.2187 40.9783C42.9251 42.0208 40.5121 42.5049 37.9915 42.3037C36.0937 42.1535 35.0954 41.0147 35.0939 39.1178C35.0939 38.2896 35.3311 37.5328 35.7328 36.8198C36.2596 35.8866 36.9611 35.092 37.7397 34.3717C40.8614 31.4846 44.3455 29.1531 48.2822 27.5186C48.7101 27.3407 49.1306 27.1322 49.5221 26.8843C50.1799 26.4673 50.6093 25.9045 50.6049 25.0632C50.602 24.601 50.7111 24.1373 50.7446 23.6736C50.8509 22.1703 50.9513 20.667 50.3953 19.2148C50.2207 18.7598 50.0664 18.5557 49.5003 18.8779C43.7241 22.1601 38.2549 25.8914 33.0361 29.9959L33.0332 29.9945ZM49.9791 23.6182C49.9675 23.7815 49.9442 23.9521 49.9194 24.1329C49.8787 24.4304 49.8365 24.738 49.8379 25.0676C49.8409 25.5619 49.624 25.9118 49.1117 26.2355C48.7843 26.4425 48.4059 26.6365 47.9868 26.81C44.1301 28.411 40.5078 30.7658 37.2187 33.8074C36.2771 34.6779 35.5727 35.5396 35.0648 36.4422C34.5671 37.3243 34.3269 38.1992 34.3269 39.1163C34.3284 41.4449 35.6411 42.884 37.9289 43.0648C38.3204 43.0955 38.7163 43.1115 39.1048 43.1115C41.2704 43.1115 43.433 42.6274 45.5316 41.6723C48.4001 40.3674 50.9353 38.6468 53.079 36.5486C53.1008 36.9671 53.0251 37.3462 52.8519 37.7326C50.423 43.1596 46.4266 46.3237 40.6344 47.4056C39.9809 47.5281 39.3435 47.5893 38.7395 47.5893C38.2258 47.5893 37.7223 47.5441 37.2434 47.4566C34.797 47.0061 32.8949 45.5932 31.4279 43.1407C30.7614 42.0252 30.6217 40.7377 31.0131 39.3132C31.6535 36.9846 32.9924 34.8062 35.2293 32.4572C35.5407 32.1306 35.839 31.804 36.1549 31.4584C36.3004 31.2995 36.4488 31.1376 36.6002 30.9728C36.8068 30.7498 36.8607 30.4246 36.7384 30.1461C36.6162 29.8676 36.3426 29.6868 36.0384 29.6868H34.669C39.5909 25.8987 44.6511 22.5173 49.7288 19.6216C50.1727 20.8916 50.0737 22.2753 49.9791 23.6153V23.6182Z" fill="white"/>
<path d="M24.4163 53.4304C35.8203 53.4143 47.2244 53.4143 58.6284 53.4289C59.1479 53.4289 59.343 53.3545 59.3415 52.7553C59.3197 40.9213 59.3211 29.0889 59.3371 17.255C59.3371 16.7243 59.1989 16.5974 58.6735 16.5974C47.2476 16.6134 35.8232 16.6149 24.3974 16.5945C23.8196 16.5945 23.7061 16.7549 23.709 17.3017C23.7294 23.1967 23.7221 29.0933 23.7221 34.9884C23.7221 40.9053 23.7308 46.8223 23.7076 52.7378C23.7046 53.3152 23.8691 53.4304 24.4149 53.4289L24.4163 53.4304ZM50.3926 19.2132C50.9486 20.6655 50.8482 22.1688 50.7419 23.6721C50.7084 24.1372 50.5993 24.5994 50.6022 25.0616C50.608 25.9015 50.1787 26.4658 49.5194 26.8828C49.1279 27.1307 48.7073 27.3392 48.2795 27.5171C44.3428 29.1516 40.8587 31.4831 37.737 34.3701C36.957 35.0904 36.2555 35.8851 35.7301 36.8183C35.3284 37.5313 35.0898 38.2866 35.0912 39.1162C35.0912 41.0147 36.091 42.152 37.9888 42.3022C40.5094 42.5019 42.9224 42.0193 45.216 40.9768C48.2562 39.5945 50.9573 37.7237 53.2509 35.2814C53.3208 35.2071 53.4008 35.1429 53.5056 35.0467C53.8898 36.0732 54.0062 37.0239 53.5493 38.0474C51.0432 43.6465 46.8038 47.0337 40.7743 48.1608C39.5606 48.3868 38.3221 48.4364 37.1054 48.2118C34.2471 47.6855 32.2227 45.9605 30.7718 43.5357C29.9539 42.168 29.852 40.656 30.2755 39.1119C31.0497 36.2919 32.6957 34.01 34.675 31.9307C35.1247 31.4583 35.5613 30.9713 36.0386 30.4537H32.4993C32.7307 30.2525 32.8747 30.1154 33.0305 29.9929C38.2508 25.8898 43.7199 22.1571 49.4947 18.8749C50.0594 18.5542 50.2151 18.7568 50.3897 19.2118L50.3926 19.2132Z" fill="#3E4095"/>
<path d="M26.9209 11.1325C25.9225 11.3877 24.9242 11.6414 23.9258 11.8966C23.9098 11.9009 23.8923 11.9039 23.8749 11.9068C22.9303 12.0817 22.9289 12.8181 22.9594 13.0805C23.0206 14.1493 23.4717 14.6917 24.3013 14.6917C24.5036 14.6917 24.7335 14.6567 25.0275 14.5824L52.8288 7.52812C55.7424 6.78886 58.3664 6.12105 60.9874 5.44304C60.9991 5.44304 61.0122 5.44158 61.0253 5.44012C61.2014 5.42554 61.5652 5.39492 61.8257 5.08435C61.9829 4.89625 62.0571 4.65129 62.0338 4.39467C61.9843 3.84059 61.8504 3.37109 61.635 2.99781C61.4648 2.70182 61.1577 2.52539 60.8128 2.52539C60.5785 2.52539 60.3791 2.60413 60.2336 2.66099C60.203 2.67266 60.1724 2.68578 60.1491 2.69307C50.5541 5.12663 40.9591 7.56457 31.364 10.0025C29.8825 10.3787 28.3995 10.7578 26.918 11.1354L26.9209 11.1325ZM60.3383 3.43233C60.5508 3.37838 60.8579 3.17133 60.9758 3.37692C61.1577 3.69333 61.2421 4.08993 61.2756 4.46028C61.2974 4.70962 60.9816 4.65275 60.8201 4.69504C58.0971 5.40076 55.3698 6.09335 52.6425 6.78449C43.3749 9.1364 34.1073 11.4868 24.8412 13.8388C23.9869 14.056 23.7642 13.8912 23.7206 13.0076C23.6595 12.6664 23.9171 12.6883 24.1135 12.6387C26.5934 12.0074 29.0733 11.3731 31.5532 10.7418C41.1468 8.30382 50.7418 5.86589 60.3369 3.43233H60.3383Z" fill="white"/>
<path d="M23.7205 13.0077C23.7641 13.8928 23.9853 14.0561 24.8411 13.8389C34.1087 11.4869 43.3763 9.13649 52.6424 6.78458C55.3697 6.09199 58.0955 5.39939 60.8199 4.69513C60.9815 4.65285 61.2987 4.71117 61.2755 4.46038C61.242 4.09002 61.1576 3.69342 60.9757 3.37701C60.8578 3.17288 60.5507 3.37993 60.3382 3.43242C50.7432 5.86598 41.1481 8.30392 31.5546 10.7419C29.0747 11.3718 26.5948 12.006 24.1149 12.6388C23.9184 12.6884 23.6593 12.668 23.7219 13.0077H23.7205Z" fill="#06A95D"/>
<path d="M19.5451 53.2875L20.9554 57.9869C21.1184 58.5279 21.3206 59.203 22.108 59.203C22.3598 59.203 22.5984 59.1242 22.923 59.012C22.9317 59.012 22.9419 59.009 22.9506 59.009C23.8529 58.8953 23.9315 58.2129 23.9344 58.0059C23.9344 57.933 23.9257 57.8586 23.9053 57.7886L23.8646 57.6443C23.8384 57.548 23.8136 57.462 23.7874 57.376L21.814 50.8087C18.9353 41.2261 15.9577 31.3183 13.05 21.5666C12.7865 20.6859 12.2117 20.5547 11.8915 20.5547C11.7023 20.5547 11.535 20.5984 11.4011 20.6349C11.3545 20.648 11.305 20.6611 11.2541 20.6713C11.0911 20.702 10.5933 20.7982 10.3241 21.2444C10.052 21.6949 10.2004 22.1892 10.2717 22.4269C13.3687 32.7123 16.5078 43.1741 19.5437 53.2904L19.5451 53.2875ZM11.3982 21.4208C11.8071 21.3421 12.1185 21.1102 12.3194 21.7839C15.8806 33.7257 19.4724 45.6587 23.0569 57.5947C23.0932 57.7157 23.1267 57.8382 23.1704 57.9957C23.1675 58.2858 22.8735 58.2188 22.7047 58.2771C21.9202 58.5468 21.9173 58.5366 21.6859 57.7653C18.1291 45.911 14.5737 34.0552 11.0038 22.2023C10.8699 21.7576 10.8801 21.5185 11.3982 21.4193V21.4208Z" fill="white"/>
<path d="M21.686 57.7655C21.9174 58.5368 21.9203 58.547 22.7047 58.2772C22.8735 58.2189 23.1675 58.286 23.1704 57.9958C23.1268 57.8384 23.0933 57.7159 23.0569 57.5949C19.4724 45.6603 15.8806 33.7273 12.3194 21.784C12.1186 21.1104 11.8072 21.3422 11.3982 21.421C10.8801 21.5201 10.8699 21.7578 11.0038 22.204C14.5723 34.0554 18.1277 45.9111 21.686 57.7669V57.7655Z" fill="#06A95D"/>
<path d="M60.0428 57.8369C60.0544 57.8369 60.0661 57.8354 60.0792 57.8339C60.2538 57.8194 60.6162 57.7887 60.8752 57.468C61.0368 57.2682 61.1052 57.0072 61.0703 56.7331C61.0091 56.2592 60.9145 55.762 60.6395 55.3377C60.4692 55.0752 60.184 54.9236 59.8565 54.9236C59.628 54.9236 59.4199 54.9965 59.2525 55.0563C59.206 55.0723 59.1434 55.0942 59.1201 55.1C49.3111 57.3892 39.3392 59.7222 29.6961 61.9779L28.0879 62.354C26.391 62.7506 24.6373 63.1618 22.9128 63.5715C22.8953 63.5745 22.8764 63.5759 22.8575 63.5774C21.798 63.6867 21.8169 64.4989 21.8314 64.6607C21.8707 65.0923 21.9464 65.5968 22.2215 66.0678C22.3626 66.3084 22.5955 66.4455 22.9288 66.4761C22.9695 66.4819 23.0103 66.4863 23.051 66.4863C23.1223 66.4863 23.1936 66.4761 23.262 66.4571C23.3013 66.4455 23.3392 66.4338 23.3756 66.4236C23.4309 66.4075 23.4832 66.39 23.5386 66.3784L33.64 64.0206C38.9462 62.7827 44.2524 61.5433 49.5571 60.304C52.5711 59.5997 55.8063 58.84 60.0442 57.8398L60.0428 57.8369ZM23.3625 65.6318C23.2591 65.6552 23.1587 65.6902 23.0481 65.7208C22.9928 65.7091 22.8997 65.7164 22.8793 65.6814C22.6843 65.3475 22.6246 64.9626 22.5911 64.5937C22.5664 64.3137 22.8924 64.3648 23.0801 64.3196C24.8702 63.8938 26.6632 63.4753 28.4547 63.0554C38.7337 60.651 49.0128 58.2451 59.2918 55.8466C59.5305 55.7912 59.89 55.5885 59.9977 55.7547C60.1927 56.0565 60.264 56.4604 60.312 56.8322C60.3484 57.1078 60.0515 57.048 59.8842 57.0874C56.3841 57.9127 52.8825 58.738 49.381 59.556C40.7086 61.5827 32.0348 63.6065 23.3625 65.6318Z" fill="white"/>
<path d="M60.3121 56.8322C60.2641 56.4603 60.1942 56.0564 59.9977 55.7546C59.89 55.5884 59.5291 55.7911 59.2919 55.8465C49.0114 58.2451 38.7323 60.6509 28.4547 63.0553C26.6632 63.4752 24.8702 63.8937 23.0802 64.3195C22.8924 64.3647 22.5664 64.3136 22.5912 64.5936C22.6246 64.9625 22.6843 65.3474 22.8793 65.6813C22.8997 65.7163 22.9928 65.709 23.0482 65.7207C23.1588 65.6886 23.2592 65.6551 23.3625 65.6318C32.0349 63.6065 40.7087 61.5826 49.381 59.5559C52.8826 58.7379 56.3841 57.9141 59.8842 57.0873C60.0501 57.048 60.347 57.1077 60.3121 56.8322Z" fill="#424497"/>
<path d="M74.0955 57.2128C73.9252 57.0349 73.6153 56.8235 73.1146 56.8235C72.9312 56.8235 72.7333 56.8512 72.5092 56.9081C66.3327 58.4784 60.1548 60.0473 53.9784 61.6162L45.0397 63.8865C42.2382 64.5981 39.3435 65.3329 36.4954 66.0664C36.4809 66.0678 36.4648 66.0693 36.4488 66.0707C35.4417 66.1611 35.4272 66.9208 35.4345 67.0724C35.4534 67.4472 35.5291 67.9954 35.7823 68.4839C35.9511 68.8076 36.2684 69.0015 36.6308 69.0015C36.8709 69.0015 37.0674 68.9199 37.21 68.8601C37.2362 68.8499 37.2609 68.8382 37.2726 68.8338C46.3102 66.5461 55.4075 64.2335 64.205 61.9968C67.3297 61.2021 70.3844 60.425 73.4115 59.6434C73.4231 59.642 73.4348 59.6405 73.4464 59.6391C74.4171 59.5326 74.4972 58.7803 74.4914 58.4915C74.5074 57.9258 74.3779 57.5073 74.0941 57.2128H74.0955ZM73.2383 58.8969C70.1676 59.6901 67.0924 60.4716 64.0188 61.2532C55.0422 63.5351 46.0657 65.8185 37.0877 68.0902C36.8854 68.1412 36.5842 68.3643 36.4619 68.1296C36.2931 67.8044 36.2174 67.4063 36.2 67.0345C36.1883 66.8042 36.5027 66.8566 36.6701 66.8129C39.9271 65.976 43.1856 65.1492 46.4456 64.321C55.1965 62.0974 63.9489 59.8738 72.6998 57.6502C73.4566 57.4578 73.7593 57.7188 73.7317 58.4915C73.755 58.9231 73.4304 58.8488 73.2412 58.8969H73.2383Z" fill="white"/>
<path d="M72.697 57.6501C63.946 59.8751 55.1951 62.0973 46.4427 64.3209C43.1842 65.1491 39.9242 65.9758 36.6672 66.8127C36.4998 66.855 36.1854 66.804 36.1971 67.0344C36.216 67.4062 36.2902 67.8043 36.4591 68.1294C36.5813 68.3642 36.8826 68.1411 37.0848 68.09C46.0643 65.8183 55.0408 63.5349 64.0159 61.253C67.0895 60.4715 70.1647 59.6885 73.2354 58.8967C73.4246 58.8472 73.7492 58.923 73.7259 58.4914C73.7535 57.7186 73.4508 57.4576 72.6941 57.6501H72.697Z" fill="#06A95D"/>
<path d="M15.5533 11.0378C15.741 11.3207 16.0452 11.4825 16.3886 11.4825C16.636 11.4825 16.85 11.3994 17.0072 11.3382C17.0435 11.3236 17.0988 11.3017 17.1163 11.2973C24.7932 9.5097 32.5982 7.68416 40.1456 5.91841L43.0257 5.24477C46.4603 4.44136 49.8963 3.63795 53.328 2.83016C53.344 2.82725 53.3615 2.82433 53.379 2.82141C54.3453 2.67706 54.4006 1.93781 54.3817 1.64327C54.3817 1.23063 54.3322 0.721757 53.9742 0.361608C53.737 0.121022 53.4197 0 53.0311 0C52.8463 0 52.6353 0.0277038 52.3879 0.0860276C43.0766 2.26442 33.7668 4.44282 24.457 6.62121L23.5504 6.83264C21.1578 7.39254 18.6852 7.97141 16.2547 8.54881C16.2402 8.55027 16.2256 8.55173 16.2111 8.55173C15.1472 8.6363 15.1574 9.47179 15.1705 9.63947C15.2054 10.0886 15.2651 10.6033 15.5547 11.0363L15.5533 11.0378ZM16.4134 9.29828C19.1509 8.64797 21.8898 8.00786 24.6302 7.3663C33.94 5.1879 43.2513 3.00951 52.5611 0.831114C53.3775 0.640104 53.6235 0.847154 53.6176 1.67098C53.6598 2.07633 53.36 2.0355 53.1548 2.08362C49.531 2.93515 45.9058 3.78376 42.2806 4.63091C33.8352 6.60663 25.3899 8.58235 16.9431 10.5493C16.6928 10.6076 16.3479 10.8497 16.1893 10.6106C16.003 10.3306 15.9593 9.93255 15.9317 9.57969C15.9084 9.27057 16.2344 9.3391 16.4148 9.29536L16.4134 9.29828Z" fill="white"/>
<path d="M16.1877 10.6121C16.3478 10.8512 16.6927 10.6092 16.9416 10.5508C25.3884 8.58386 33.8337 6.60814 42.279 4.63242C45.9043 3.78527 49.5295 2.93665 53.1533 2.08513C53.3571 2.03701 53.6569 2.07638 53.6161 1.67248C53.6234 0.847203 53.3774 0.640153 52.5595 0.832622C43.2497 3.01102 33.9385 5.18941 24.6287 7.36781C21.8897 8.00937 19.1493 8.64801 16.4118 9.29978C16.2314 9.34207 15.9054 9.27354 15.9287 9.58411C15.9563 9.93697 16 10.3365 16.1863 10.615L16.1877 10.6121Z" fill="#424497"/>
<path d="M63.9577 56.739C64.4264 56.9358 64.8149 57.0277 65.1802 57.0277C65.2428 57.0277 65.3054 57.0248 65.3651 57.0189C65.7362 56.9839 66.1975 56.7594 66.2906 55.8889C66.295 55.8525 66.3008 55.7985 66.3037 55.781C68.5799 45.5744 70.8531 35.3677 73.1249 25.161C73.4276 23.8021 73.7289 22.4417 74.033 21.0667L74.4551 19.1609C74.4682 19.1012 74.474 19.0385 74.4726 18.9772V18.9685C74.4813 18.8183 74.5046 18.3634 74.0942 18.098C73.6881 17.8355 73.202 17.7043 72.6039 17.697C72.601 17.697 72.5937 17.697 72.5908 17.697C72.3172 17.697 71.6696 17.8035 71.5808 18.7891C71.5779 18.8139 71.5764 18.8387 71.575 18.8518C70.0134 25.8565 68.4562 32.8641 66.899 39.8703L65.1642 47.6769C64.9197 48.7734 64.6738 49.8699 64.4278 50.9664C64.1033 52.4114 63.7802 53.8549 63.4629 55.2926C63.4586 55.3101 63.4513 55.329 63.4455 55.348C63.1224 56.3016 63.7554 56.6515 63.9563 56.7361L63.9577 56.739ZM64.2081 55.4675C64.7698 52.9246 65.3461 50.3861 65.9108 47.8446C68.0472 38.2358 70.1793 28.6269 72.3216 19.0195C72.3667 18.8183 72.3114 18.4596 72.5952 18.4625C72.9619 18.4669 73.3534 18.5311 73.6809 18.741C73.7332 18.776 73.7056 18.9364 73.71 18.9933C73.2603 21.0244 72.8222 23.0089 72.3798 24.9919C70.108 35.1985 67.8348 45.4052 65.5586 55.6119C65.5062 55.8452 65.547 56.2316 65.2952 56.2549C64.9561 56.287 64.5792 56.1674 64.2532 56.0304C63.997 55.9225 64.1688 55.6512 64.2095 55.4661L64.2081 55.4675Z" fill="white"/>
<path d="M64.2531 56.0317C64.5791 56.1688 64.9546 56.2869 65.2952 56.2563C65.5484 56.2329 65.5076 55.8465 65.5586 55.6132C67.8347 45.4066 70.108 35.1999 72.3797 24.9932C72.8207 23.0102 73.2588 21.0258 73.7099 18.9946C73.7056 18.9378 73.7347 18.7759 73.6808 18.7424C73.3548 18.531 72.9633 18.4683 72.5951 18.4639C72.3114 18.461 72.3652 18.8197 72.3215 19.0209C70.1793 28.6283 68.0472 38.2371 65.9108 47.846C65.3461 50.3874 64.7698 52.926 64.208 55.4689C64.1673 55.6541 63.9955 55.9253 64.2517 56.0332L64.2531 56.0317Z" fill="#424497"/>
<path d="M22.4297 63.0073C22.6539 62.774 22.9391 62.2739 22.341 61.5463C22.3206 61.5215 22.3002 61.4996 22.29 61.4836C18.4508 55.2153 14.5404 48.8463 10.7594 42.6873L6.99443 36.5531C5.59439 34.2712 4.19436 31.9892 2.79432 29.7146C2.78559 29.7 2.77831 29.6825 2.77104 29.6665C2.68517 29.4842 2.42467 28.9272 1.70136 28.9272C1.5602 28.9272 1.42048 28.9681 1.30115 29.0439C1.23566 29.0847 1.15416 29.1285 1.06684 29.1751C0.804875 29.3151 0.478879 29.4872 0.232927 29.7919C-0.0159354 30.0966 -0.190576 30.6055 0.381372 31.2967C0.404657 31.3244 0.439585 31.3666 0.446862 31.3783C3.88437 36.9949 7.38591 42.7019 10.7725 48.2208L11.9557 50.1484C14.5505 54.3768 17.2342 58.7497 19.8742 63.0394C19.8844 63.0598 19.8945 63.0817 19.9047 63.105C19.9877 63.2873 20.2395 63.8443 20.8565 63.8443C20.9613 63.8443 21.0646 63.8268 21.1665 63.7918C21.6613 63.6212 22.1096 63.3441 22.4297 63.0102V63.0073ZM21.8782 62.4766C21.6249 62.7405 21.2684 62.9432 20.9191 63.0642C20.6993 63.14 20.6324 62.8076 20.5291 62.6413C17.8221 58.2423 15.121 53.8403 12.4185 49.4368C8.64333 43.2837 4.86672 37.1319 1.09885 30.9744C0.966418 30.7586 0.627324 30.5137 0.82525 30.2731C1.04064 30.0092 1.41321 29.875 1.70718 29.6913C2.00553 29.6898 2.04046 29.945 2.14088 30.1083C4.05028 33.2082 5.9524 36.314 7.85744 39.4168C12.4534 46.9041 17.0494 54.3914 21.6395 61.8817C21.753 62.0654 22.0514 62.2958 21.8782 62.4766Z" fill="white"/>
<path d="M7.85742 39.4167C5.95238 36.3138 4.05026 33.2081 2.14085 30.1082C2.04043 29.9449 2.00551 29.6897 1.70716 29.6912C1.41318 29.8749 1.04062 30.009 0.825227 30.2729C0.628756 30.515 0.96785 30.7585 1.09883 30.9743C4.8667 37.1318 8.6433 43.2835 12.4184 49.4367C15.1196 53.8387 17.8221 58.2421 20.529 62.6412C20.6309 62.8074 20.6979 63.1399 20.9191 63.0641C21.2684 62.943 21.6249 62.7404 21.8781 62.4764C22.0513 62.2956 21.7515 62.0667 21.6395 61.8815C17.0508 54.3898 12.4534 46.904 7.85742 39.4167Z" fill="#424497"/>
<path d="M103.106 35.0365C103.054 35.1211 102.994 35.191 102.93 35.2494C102.817 35.8618 102.789 36.4698 102.847 37.072C103.036 37.1653 103.183 37.2965 103.291 37.5021C103.49 37.8812 103.409 38.2297 103.215 38.6774C103.847 40.3687 105.168 41.3428 107.052 41.5002C107.263 41.5177 107.471 41.5265 107.669 41.5265C109.376 41.5265 110.667 40.8543 111.505 39.5303C111.824 39.0258 112.1 38.5899 111.875 38.0795C111.799 37.9075 111.69 37.7835 111.556 37.6902C111.659 37.6392 111.751 37.5721 111.831 37.4905C112.148 37.1639 112.138 36.7337 112.134 36.5937C112.115 35.8618 112.039 35.2683 111.898 34.7245C111.335 32.5636 109.73 31.3023 107.494 31.2629C107.465 31.2629 107.436 31.2629 107.407 31.2629C105.465 31.2629 103.895 32.3769 103.214 34.1995C103.268 34.4299 103.287 34.742 103.105 35.0379L103.106 35.0365ZM103.806 34.8499C104.298 33.0783 105.717 31.9964 107.482 32.0284C109.377 32.062 110.683 33.0856 111.16 34.9184C111.304 35.4739 111.357 36.0411 111.371 36.6142C111.38 36.9481 111.271 37.056 110.937 37.0487C110.154 37.0297 109.372 37.0428 108.589 37.0428C107.826 37.0428 107.065 37.0428 106.302 37.0428C106.098 37.0428 105.886 36.9903 105.882 37.3403C105.869 38.3245 106.916 39.2591 107.886 39.09C108.327 39.0127 108.712 38.8013 108.861 38.3697C109.012 37.9279 109.286 37.9235 109.648 38.0008C109.916 38.0591 110.189 38.0927 110.46 38.1408C111.341 38.2968 111.358 38.3318 110.859 39.1221C109.98 40.5102 108.638 40.866 107.114 40.7391C105.505 40.605 104.378 39.7884 103.866 38.2297C103.501 37.1172 103.49 35.9799 103.805 34.8513L103.806 34.8499ZM108.283 37.8069C108.226 37.9016 108.178 38.0052 108.139 38.1189C108.102 38.2239 107.973 38.2968 107.755 38.3347C107.723 38.3405 107.688 38.3435 107.653 38.3435C107.421 38.3435 107.159 38.2181 106.953 38.0081C106.89 37.9454 106.836 37.8769 106.791 37.8069C106.983 37.8069 108.281 37.8069 108.281 37.8069H108.283Z" fill="white"/>
<path d="M106.4 35.6927C106.777 35.6562 107.159 35.6854 107.541 35.6854C107.985 35.6854 108.428 35.6752 108.872 35.6898C109.123 35.697 109.195 35.611 109.175 35.3588C109.11 34.5102 108.508 33.8263 107.734 33.7505C106.832 33.663 106.189 34.1675 105.959 35.1021C105.857 35.5148 105.887 35.7437 106.4 35.6927ZM107.536 34.5043C107.576 34.5043 107.618 34.5058 107.66 34.5102C107.906 34.5335 108.12 34.6866 108.258 34.9155C108.149 34.9155 108.038 34.9155 107.929 34.917C107.8 34.917 107.67 34.9184 107.532 34.9184C107.423 34.9184 107.312 34.9155 107.203 34.9126C107.082 34.9097 106.963 34.9068 106.842 34.9068C107.039 34.5524 107.322 34.5029 107.538 34.5029L107.536 34.5043Z" fill="white"/>
<path d="M107.114 40.7377C108.638 40.8645 109.98 40.5087 110.859 39.1206C111.358 38.3318 111.341 38.2954 110.46 38.1393C110.189 38.0912 109.916 38.0577 109.648 37.9994C109.287 37.9221 109.014 37.9265 108.861 38.3683C108.712 38.7999 108.327 39.0113 107.886 39.0886C106.918 39.2577 105.869 38.3231 105.882 37.3388C105.886 36.9904 106.098 37.0428 106.302 37.0414C107.065 37.0385 107.826 37.0414 108.589 37.0414C109.372 37.0414 110.156 37.0283 110.937 37.0472C111.269 37.056 111.38 36.9466 111.371 36.6127C111.355 36.0382 111.304 35.471 111.16 34.9169C110.683 33.0841 109.377 32.0605 107.482 32.027C105.717 31.9964 104.3 33.0783 103.806 34.8484C103.492 35.977 103.502 37.1158 103.867 38.2268C104.38 39.7855 105.506 40.6021 107.116 40.7362L107.114 40.7377ZM105.957 35.1007C106.189 34.1646 106.83 33.6615 107.733 33.749C108.507 33.8234 109.11 34.5087 109.174 35.3573C109.193 35.6095 109.121 35.6956 108.871 35.6883C108.427 35.6752 107.983 35.6839 107.539 35.6839C107.159 35.6839 106.775 35.6547 106.398 35.6912C105.886 35.7408 105.855 35.5118 105.957 35.1007Z" fill="#05A95C"/>
<path d="M133.855 53.3314C133.855 52.6913 133.858 52.0293 133.853 51.3761C133.85 51.0509 133.807 50.7083 133.718 50.3263C133.401 48.9702 132.124 48.0225 130.615 48.0225C129.822 48.0225 129.068 48.2791 128.434 48.7632C128.356 48.823 128.282 48.8842 128.212 48.9469C127.632 48.3753 126.817 48.0443 125.923 48.0443C125.238 48.0443 124.568 48.2324 123.958 48.5867C123.63 48.2047 123.155 48.2003 122.868 48.1974C122.868 48.1974 122.739 48.196 122.708 48.196C122.519 48.196 122.077 48.196 121.745 48.5328C121.404 48.8784 121.41 49.3435 121.412 49.4981C121.444 52.2334 121.442 54.4483 121.409 56.4692C121.406 56.6267 121.397 57.1079 121.742 57.4593C122.065 57.7888 122.491 57.7902 122.653 57.7902H122.813C122.831 57.7902 122.883 57.7917 122.883 57.7917C122.954 57.7946 123.024 57.7975 123.09 57.7975C123.254 57.7975 123.694 57.7975 124.025 57.4505C124.376 57.0845 124.354 56.5888 124.348 56.4255C124.311 55.5214 124.319 54.5912 124.328 53.6915C124.331 53.3212 124.335 52.9508 124.335 52.5805C124.335 52.0701 124.396 51.7012 124.53 51.3834C124.69 51.0013 125.067 50.7637 125.514 50.7637C125.572 50.7637 125.631 50.7681 125.689 50.7768C125.964 50.8162 126.115 50.838 126.185 51.5933C126.2 51.7494 126.2 51.9185 126.2 52.0978C126.2 52.0978 126.2 53.066 126.2 53.5195C126.2 54.5081 126.2 55.4967 126.205 56.4736C126.205 56.4911 126.203 56.51 126.2 56.529C126.09 57.4957 126.753 57.6969 126.958 57.7348C127.214 57.783 127.458 57.8063 127.684 57.8063C127.927 57.8063 128.156 57.7786 128.362 57.7232C128.688 57.6357 129.215 57.3484 129.093 56.4109C129.088 56.3817 129.084 56.3526 129.083 56.3365C129.102 55.7387 129.091 55.138 129.083 54.5576C129.067 53.5691 129.052 52.6359 129.164 51.7042C129.233 51.1326 129.65 50.7637 130.228 50.7637C130.267 50.7637 130.308 50.7651 130.349 50.7695C130.705 50.8001 130.941 50.8205 130.947 51.7727L130.951 52.388C130.961 53.744 130.972 55.1453 130.938 56.5173C130.928 56.9256 131.037 57.2493 131.26 57.4782C131.468 57.6926 131.749 57.8004 132.095 57.8004C132.159 57.8004 132.228 57.7961 132.295 57.7932C132.331 57.7902 132.367 57.7888 132.405 57.7873C132.442 57.7873 132.478 57.7902 132.514 57.7932C132.583 57.7975 132.65 57.8004 132.714 57.8004C133.059 57.8004 133.34 57.6925 133.548 57.4797C133.772 57.2507 133.879 56.9285 133.871 56.5217C133.847 55.4646 133.85 54.3841 133.852 53.3387L133.855 53.3314ZM132.404 57.0131C132.069 57.0131 131.688 57.1487 131.704 56.5275C131.743 54.9397 131.723 53.3489 131.712 51.7596C131.704 50.5843 131.321 50.0784 130.416 49.9996C129.39 49.9107 128.533 50.5566 128.406 51.605C128.218 53.1652 128.368 54.7384 128.319 56.3044C128.311 56.5363 128.467 56.8935 128.164 56.9752C127.831 57.0656 127.444 57.0379 127.098 56.9737C126.868 56.9314 126.97 56.6486 126.968 56.4736C126.961 55.033 126.964 53.5909 126.962 52.1503C126.962 51.9389 126.964 51.726 126.945 51.5146C126.853 50.526 126.537 50.1163 125.795 50.0113C124.948 49.8903 124.145 50.3204 123.825 51.0801C123.625 51.5554 123.571 52.0614 123.57 52.5732C123.568 53.8665 123.529 55.1598 123.583 56.4503C123.608 57.0554 123.304 57.0349 122.893 57.0189C122.521 57.0043 122.16 57.121 122.17 56.478C122.211 54.1479 122.202 51.8164 122.174 49.4849C122.168 48.9761 122.403 48.9527 122.787 48.9586C123.17 48.9658 123.533 48.9309 123.434 49.4981C123.414 49.6176 123.432 49.7459 123.432 49.988C125.015 48.2499 127.367 48.5517 128.11 50.1017C128.375 49.8524 128.614 49.5841 128.893 49.3697C130.385 48.231 132.583 48.8419 132.97 50.4998C133.037 50.787 133.083 51.0859 133.085 51.379C133.096 53.0952 133.067 54.8128 133.105 56.529C133.118 57.1531 132.733 57.0116 132.399 57.0131H132.404Z" fill="white"/>
<path d="M133.089 51.3804C133.088 51.0873 133.041 50.7884 132.974 50.5012C132.586 48.8433 130.388 48.2324 128.898 49.3712C128.617 49.5855 128.378 49.8538 128.115 50.1031C127.371 48.5532 125.018 48.2513 123.436 49.9894C123.436 49.7473 123.418 49.6205 123.439 49.4995C123.538 48.9323 123.174 48.9658 122.791 48.96C122.407 48.9527 122.173 48.976 122.178 49.4863C122.206 51.8178 122.215 54.1493 122.174 56.4794C122.162 57.1224 122.523 57.0057 122.897 57.0203C123.306 57.0364 123.612 57.0568 123.587 56.4517C123.533 55.1613 123.573 53.8665 123.574 52.5746C123.574 52.0628 123.629 51.5568 123.829 51.0815C124.148 50.3218 124.952 49.8932 125.799 50.0127C126.542 50.1177 126.857 50.5289 126.949 51.516C126.968 51.726 126.967 51.9389 126.967 52.1517C126.967 53.5923 126.964 55.0344 126.972 56.475C126.972 56.65 126.872 56.9328 127.102 56.9751C127.448 57.0393 127.835 57.067 128.169 56.9766C128.471 56.8949 128.316 56.5377 128.323 56.3059C128.372 54.7399 128.222 53.1666 128.41 51.6064C128.535 50.558 129.394 49.9107 130.42 50.0011C131.324 50.0798 131.708 50.5857 131.717 51.761C131.728 53.3503 131.747 54.9411 131.708 56.5289C131.693 57.1516 132.073 57.0159 132.408 57.0145C132.741 57.0145 133.127 57.1545 133.114 56.5304C133.077 54.8142 133.105 53.098 133.094 51.3804H133.089Z" fill="#434598"/>
<path d="M115.813 41.531C116.119 41.531 116.434 41.4974 116.75 41.4304C117.275 41.3195 117.759 41.1125 118.22 40.7961C118.272 40.8646 118.332 40.9288 118.403 40.9885C118.78 41.3035 119.229 41.3035 119.851 41.3035H119.894C119.91 41.3035 119.926 41.3035 119.942 41.3035C120.055 41.3225 120.16 41.3312 120.26 41.3312C120.703 41.3312 120.978 41.146 121.131 40.99C121.464 40.6503 121.503 40.1953 121.497 39.7958C121.476 38.3727 121.479 36.9205 121.483 35.5163C121.483 34.9739 121.486 34.4315 121.486 33.8876C121.486 32.9909 121.486 32.4951 121.225 32.0767C120.828 31.438 120.096 31.438 119.562 31.438C119.4 31.438 119.217 31.4409 119.009 31.4453H118.967C118.498 31.4541 117.714 31.6349 117.73 32.7386C117.748 33.9941 117.738 35.2553 117.728 36.4757V36.5968C117.725 36.9642 117.724 37.3112 117.644 37.6189C117.537 38.0286 117.185 38.294 116.743 38.294C116.718 38.294 116.695 38.294 116.67 38.2911C116.366 38.2707 116.212 38.2619 116.153 37.5854C116.076 36.6886 116.082 35.7992 116.089 34.8587C116.092 34.5379 116.094 34.2172 116.092 33.8964V33.8803C116.089 33.0784 116.088 32.5958 115.922 32.1991C115.586 31.3928 114.75 31.3928 114.477 31.3928C114.203 31.3928 113.864 31.422 113.441 31.4584C113.414 31.457 113.39 31.4555 113.365 31.4555C113.014 31.4555 112.789 31.6086 112.662 31.7369C112.37 32.0315 112.371 32.4135 112.372 32.5389C112.377 33.1367 112.372 33.7476 112.367 34.3382C112.356 35.6359 112.346 36.9773 112.425 38.3042C112.54 40.2347 113.902 41.531 115.814 41.531H115.813ZM113.135 32.5345C113.135 32.3318 113.183 32.2021 113.416 32.2254C113.436 32.2269 113.458 32.2254 113.48 32.2254C115.325 32.065 115.321 32.065 115.328 33.9022C115.333 35.1532 115.285 36.4058 115.392 37.6553C115.474 38.5987 115.833 39.0085 116.621 39.0595C117.462 39.1149 118.181 38.6002 118.383 37.8143C118.497 37.3768 118.488 36.9307 118.491 36.4859C118.501 35.2349 118.511 33.9824 118.492 32.7314C118.486 32.3566 118.575 32.2225 118.98 32.2152C120.722 32.1831 120.72 32.1685 120.72 33.892C120.72 35.8648 120.701 37.8376 120.732 39.8104C120.741 40.3616 120.634 40.6619 120.02 40.5424C119.98 40.5351 119.936 40.5424 119.894 40.5424C119.156 40.5424 118.717 40.1895 118.575 39.4838C118.01 40.0802 117.386 40.5161 116.593 40.6838C114.762 41.0702 113.295 40.1079 113.186 38.2619C113.074 36.3591 113.148 34.4461 113.135 32.5374V32.5345Z" fill="white"/>
<path d="M113.184 38.2591C113.294 40.105 114.762 41.0688 116.591 40.6809C117.385 40.5133 118.009 40.0773 118.574 39.4809C118.716 40.1866 119.156 40.5395 119.892 40.5395C119.934 40.5395 119.978 40.5322 120.019 40.5395C120.633 40.6591 120.739 40.3587 120.73 39.8075C120.7 37.8347 120.719 35.8619 120.719 33.8891C120.719 32.1657 120.719 32.1802 118.978 32.2123C118.574 32.2196 118.485 32.3538 118.491 32.7285C118.51 33.9795 118.499 35.2306 118.489 36.4831C118.485 36.9278 118.494 37.3725 118.382 37.8114C118.179 38.5973 117.46 39.1106 116.619 39.0566C115.833 39.0056 115.472 38.5959 115.391 37.6525C115.283 36.4029 115.331 35.1504 115.327 33.8993C115.319 32.0621 115.325 32.0621 113.478 32.2225C113.458 32.224 113.436 32.2255 113.414 32.2225C113.18 32.1992 113.132 32.329 113.134 32.5317C113.145 34.4403 113.071 36.3533 113.184 38.2561V38.2591Z" fill="#05A95C"/>
<path d="M81.6867 41.3165H81.7304C82.5585 41.3063 83.4346 41.3005 84.5683 41.3005C85.1097 41.3005 85.6511 41.3005 86.1925 41.302C86.7353 41.302 87.2767 41.3034 87.8195 41.3034C88.6636 41.3034 89.173 41.3034 89.5703 40.9272C89.9822 40.5365 89.9894 40.0086 89.9996 39.2081V39.1396C90.0025 38.9836 90.0084 38.5083 89.6707 38.1671C89.3404 37.8317 88.8936 37.8317 88.7015 37.8317H88.6403C88.2954 37.8375 87.9214 37.839 87.463 37.839C87.1894 37.839 86.9158 37.839 86.6436 37.8375C86.3685 37.8375 86.0935 37.8361 85.8199 37.8361C85.3833 37.8361 84.8186 37.8375 84.2307 37.8507C84.2408 36.4684 84.2408 35.0686 84.2408 33.7126C84.2408 32.3566 84.2408 31.0516 84.2496 29.7218C84.2496 29.5176 84.2539 29.0394 83.9119 28.6953C83.698 28.4795 83.4098 28.3701 83.0562 28.3701C82.9951 28.3701 82.931 28.373 82.8641 28.3789C82.6793 28.3964 82.4901 28.4051 82.3023 28.4051C82.1146 28.4051 81.9239 28.3964 81.7377 28.3789C81.6736 28.373 81.6096 28.3701 81.5514 28.3701C81.1948 28.3701 80.9052 28.4809 80.6898 28.6996C80.3464 29.0481 80.3522 29.5293 80.3536 29.7349C80.3682 30.9684 80.3667 32.2239 80.3638 33.4399C80.3638 33.8963 80.3624 34.3541 80.3624 34.8105C80.3624 35.2669 80.3638 35.7568 80.3653 36.2293C80.3696 37.4482 80.3726 38.7095 80.3507 39.9445C80.3449 40.2317 80.374 40.6502 80.684 40.9666C80.9882 41.2772 81.3796 41.3165 81.6867 41.3165ZM81.1133 39.9591C81.1453 38.2429 81.125 36.5267 81.125 34.8105C81.125 33.1162 81.1366 31.4205 81.1162 29.7261C81.1104 29.3062 81.1934 29.0992 81.6664 29.1429C82.0869 29.1823 82.5163 29.1823 82.9354 29.1429C83.4011 29.0992 83.4884 29.2916 83.4855 29.7189C83.4681 32.4732 83.4855 35.2275 83.4666 37.9819C83.4637 38.4572 83.5554 38.6351 84.0793 38.622C85.603 38.5826 87.1282 38.622 88.6534 38.5987C89.0638 38.5928 89.2428 38.6511 89.237 39.1323C89.2196 40.5408 89.2428 40.5408 87.8195 40.5408C85.7864 40.5408 83.7533 40.5263 81.7202 40.5525C81.2545 40.5583 81.1031 40.4504 81.1133 39.9605V39.9591Z" fill="white"/>
<path d="M81.7216 40.5512C83.7547 40.5249 85.7878 40.5395 87.8209 40.5395C89.2443 40.5395 89.221 40.5395 89.2384 39.131C89.2443 38.6513 89.0652 38.5915 88.6548 38.5973C87.1296 38.6192 85.6045 38.5813 84.0807 38.6207C83.5568 38.6338 83.4637 38.4559 83.468 37.9806C83.4884 35.2262 83.468 32.4719 83.4869 29.7175C83.4898 29.2903 83.4025 29.0978 82.9368 29.1416C82.5177 29.1809 82.0869 29.1809 81.6678 29.1416C81.1962 29.0978 81.1133 29.3034 81.1177 29.7248C81.138 31.4191 81.1264 33.1149 81.1264 34.8092C81.1264 36.5254 81.1453 38.2415 81.1147 39.9577C81.106 40.4476 81.2559 40.5555 81.7216 40.5497V40.5512Z" fill="#06A95D"/>
<path d="M94.207 37.8143C94.5941 39.8571 96.0931 41.2335 98.2164 41.4989C98.4638 41.5295 98.7098 41.5455 98.9499 41.5455C100.782 41.5455 102.31 40.6197 103.036 39.0697C103.102 38.9297 103.163 38.7985 103.215 38.676C103.408 38.2269 103.491 37.8799 103.291 37.5008C103.183 37.2952 103.036 37.164 102.847 37.0707C102.591 36.9438 102.259 36.8898 101.846 36.8228C101.775 36.8111 101.703 36.8009 101.632 36.7907C101.494 36.7717 101.361 36.7528 101.265 36.7236C101.092 36.6682 100.935 36.642 100.787 36.642C100.395 36.642 99.8784 36.8155 99.6456 37.6422C99.5204 38.0884 99.3167 38.1773 98.9834 38.1861H98.9383C98.3765 38.1861 98.2048 37.9397 98.1175 37.7239C97.7507 36.8155 97.7391 35.8983 98.0825 34.9972C98.1567 34.8048 98.3052 34.5788 98.8131 34.5438C98.8626 34.5409 98.9121 34.5379 98.9615 34.5379C99.2119 34.5379 99.3792 34.589 99.3967 34.64C99.7183 35.5688 100.35 35.7642 100.821 35.7642C101.079 35.7642 101.328 35.7059 101.546 35.6548C101.747 35.6082 101.942 35.5644 102.12 35.5513C102.261 35.5397 102.639 35.5105 102.927 35.2495C102.991 35.1912 103.053 35.1212 103.103 35.0366C103.285 34.7406 103.266 34.43 103.213 34.1982C103.182 34.0655 103.138 33.9605 103.114 33.8993C102.43 32.2312 100.881 31.2354 98.9717 31.2354C98.4565 31.2354 97.9268 31.3097 97.3985 31.457C95.2883 32.0446 94.0731 33.8687 94.0629 36.4626C94.028 36.884 94.1109 37.3258 94.1939 37.7545L94.2055 37.8143H94.207ZM94.8298 36.5005C94.8298 34.2084 95.8297 32.6905 97.6052 32.1962C99.7489 31.5999 101.679 32.412 102.409 34.1909C102.578 34.6036 102.483 34.7567 102.061 34.7887C101.83 34.8062 101.6 34.8573 101.374 34.9112C100.832 35.0381 100.379 35.1416 100.12 34.3907C99.9337 33.8512 99.3254 33.7433 98.7622 33.7812C98.1175 33.8249 97.6023 34.1165 97.3709 34.7246C96.9546 35.8152 96.975 36.935 97.4102 38.0126C97.6852 38.6921 98.2848 38.9705 99.0023 38.953C99.7009 38.9356 100.174 38.59 100.381 37.8522C100.494 37.4483 100.648 37.3331 101.035 37.4556C101.255 37.5241 101.492 37.5416 101.722 37.5795C102.446 37.6981 102.653 38.0869 102.344 38.746C101.652 40.2216 100.142 40.9696 98.311 40.7407C96.5224 40.5176 95.2839 39.3905 94.9579 37.6728C94.8793 37.2573 94.7949 36.8388 94.8298 36.502V36.5005Z" fill="white"/>
<path d="M98.3109 40.7408C100.142 40.9697 101.654 40.2217 102.344 38.7461C102.652 38.0861 102.445 37.6972 101.722 37.5796C101.492 37.5417 101.257 37.5242 101.035 37.4557C100.648 37.3332 100.494 37.4498 100.38 37.8523C100.174 38.5901 99.7008 38.9371 99.0022 38.9531C98.2847 38.9706 97.6851 38.6936 97.4101 38.0127C96.9749 36.9351 96.9531 35.8153 97.3708 34.7247C97.6036 34.1166 98.1174 33.825 98.7621 33.7813C99.3239 33.7434 99.9322 33.8513 100.12 34.3908C100.38 35.1417 100.832 35.0382 101.374 34.9113C101.601 34.8588 101.83 34.8078 102.061 34.7888C102.483 34.7553 102.578 34.6036 102.409 34.191C101.679 32.4121 99.7503 31.5985 97.6051 32.1963C95.8281 32.6906 94.8283 34.21 94.8298 36.5006C94.7948 36.8374 94.8793 37.2574 94.9578 37.6715C95.2838 39.3906 96.5223 40.5162 98.3109 40.7393V40.7408Z" fill="#04A95B"/>
<path d="M90.8539 52.945C90.3867 52.5877 89.857 52.509 89.4291 52.4448C89.3752 52.4361 89.3214 52.4288 89.2676 52.4201C89.2108 52.4113 89.154 52.4069 89.1002 52.4069C88.8513 52.4069 88.2605 52.5017 88.1353 53.3853C88.1338 53.3999 88.1309 53.4159 88.1295 53.4291C87.8661 54.1785 87.2912 55.0782 86.0454 55.1569C85.9639 55.1627 85.8824 55.1642 85.8039 55.1642C84.6963 55.1642 83.8493 54.683 83.4782 53.8432C82.7811 52.264 82.7709 50.6893 83.4506 49.1612C83.8624 48.2339 84.625 47.7921 85.849 47.7731H85.9101C87.2286 47.7731 87.6376 48.4176 87.8311 48.9031C88.112 49.6089 88.5777 49.9675 89.2123 49.9675C89.4436 49.9675 89.6707 49.9194 89.8715 49.8771C90.0709 49.8349 90.6006 49.7226 90.848 49.2429C91.0925 48.769 90.883 48.2893 90.7826 48.0574C89.9414 46.1182 88.1382 44.959 85.961 44.959C85.3949 44.959 84.8142 45.0392 84.235 45.1981C81.5193 45.9432 79.9534 48.2003 79.9359 51.3921C79.901 51.9228 80 52.509 80.08 52.9814C80.5574 55.8087 82.2252 57.5117 84.903 57.9069C85.2363 57.9565 85.5681 57.9812 85.8912 57.9812C88.2808 57.9812 90.1713 56.6587 90.9805 54.4351C90.9252 54.1712 90.8888 53.8971 90.8742 53.6142C90.8626 53.397 90.8539 53.1724 90.8539 52.945ZM90.3154 54.024C89.5499 56.3205 87.5168 57.5176 85.0151 57.1487C82.6851 56.806 81.2545 55.3392 80.8353 52.8531C80.7509 52.3515 80.6694 51.8485 80.7014 51.4198C80.7102 48.5372 82.0578 46.5877 84.4387 45.9359C86.9055 45.2594 89.1628 46.2392 90.084 48.3622C90.2761 48.8054 90.2761 49.0081 89.7158 49.1262C89.1468 49.2458 88.8149 49.3041 88.5413 48.6173C88.0756 47.4494 87.0744 46.9872 85.8373 47.0062C84.4518 47.028 83.3283 47.5515 82.7535 48.8477C81.9763 50.5989 82.0083 52.4026 82.7811 54.1508C83.3225 55.3785 84.6061 56.0143 86.0964 55.9195C87.4062 55.8349 88.3914 55.0184 88.8615 53.6536C88.9212 53.4786 88.8702 53.1287 89.1482 53.1739C89.5761 53.2439 90.0389 53.2789 90.3984 53.5559C90.458 53.6011 90.3692 53.8679 90.3169 54.0225L90.3154 54.024Z" fill="white"/>
<path d="M89.1453 53.1753C88.8673 53.1301 88.9197 53.4801 88.8586 53.6551C88.3885 55.0213 87.4032 55.8378 86.0934 55.9209C84.6032 56.0157 83.321 55.38 82.7782 54.1523C82.0054 52.404 81.9734 50.6003 82.7505 48.8492C83.3268 47.5529 84.4489 47.0295 85.8344 47.0076C87.0729 46.9886 88.0727 47.4509 88.5384 48.6188C88.812 49.3056 89.1438 49.2472 89.7129 49.1277C90.2732 49.0096 90.2732 48.8054 90.081 48.3636C89.1598 46.2406 86.9026 45.2622 84.4358 45.9373C82.0549 46.5906 80.7072 48.5386 80.6985 51.4212C80.6665 51.8499 80.7465 52.353 80.8324 52.8546C81.2515 55.3406 82.6821 56.8075 85.0121 57.1501C87.5138 57.5175 89.5484 56.3219 90.3125 54.0254C90.3634 53.8708 90.4522 53.604 90.394 53.5588C90.0345 53.2818 89.5717 53.2453 89.1438 53.1768L89.1453 53.1753Z" fill="#424497"/>
<path d="M140.439 51.4517C140.149 50.5462 139.445 49.944 138.634 49.8988C137.806 49.8522 137.046 50.3377 136.664 51.2257C136.193 52.3178 136.192 53.4508 136.544 54.572C136.828 55.4804 137.554 56.0316 138.395 56.0505C139.27 56.071 140.02 55.5329 140.367 54.6333C140.577 54.0923 140.644 53.5295 140.622 52.9535C140.648 52.4418 140.594 51.9387 140.437 51.4502L140.439 51.4517ZM139.657 54.3577C139.429 54.9482 138.986 55.2865 138.445 55.2865H138.416C137.883 55.2734 137.457 54.922 137.276 54.3431C136.963 53.3443 136.994 52.3965 137.368 51.529C137.605 50.9778 138.027 50.6614 138.526 50.6614C138.548 50.6614 138.571 50.6614 138.593 50.6629C139.084 50.6906 139.523 51.093 139.714 51.6865C139.835 52.0656 139.886 52.4797 139.862 52.9156C139.862 52.939 139.862 52.9608 139.862 52.9842C139.883 53.5032 139.816 53.9523 139.659 54.3577H139.657Z" fill="white"/>
<path d="M142.598 51.277C142.114 49.3756 140.749 48.1669 138.94 48.0415C138.839 48.0342 138.74 48.0312 138.643 48.0312C137.965 48.0312 137.358 48.196 136.812 48.5328C136.61 48.3097 136.327 48.196 135.972 48.196C135.917 48.196 135.86 48.1989 135.803 48.2018C135.773 48.2033 135.742 48.2048 135.706 48.2048C135.614 48.1975 135.541 48.1931 135.473 48.1931C135.121 48.1931 134.834 48.301 134.623 48.5139C134.4 48.7384 134.288 49.0548 134.291 49.4529C134.313 53.1142 134.313 56.4357 134.291 59.6071C134.288 60.0197 134.398 60.3317 134.625 60.5607C134.831 60.7692 135.105 60.8742 135.438 60.8742C135.504 60.8742 135.572 60.8698 135.642 60.8654C135.675 60.8625 135.709 60.8596 135.742 60.8596C135.821 60.8683 135.924 60.8771 136.032 60.8771C136.39 60.8771 136.68 60.7648 136.892 60.5432C137.118 60.3084 137.225 59.9803 137.209 59.5677C137.185 58.9407 137.186 58.3064 137.19 57.643C137.643 57.8282 138.12 57.923 138.611 57.923C140.453 57.923 142.12 56.5422 142.595 54.6306C142.294 53.5822 142.277 52.3982 142.6 51.2755L142.598 51.277ZM141.866 54.3915C141.287 56.8761 138.449 58.1344 136.434 56.2534C136.434 57.4505 136.404 58.5252 136.445 59.5969C136.466 60.1247 136.191 60.1378 135.824 60.0984C135.493 60.0635 135.05 60.2938 135.054 59.6129C135.077 56.2257 135.074 52.8371 135.054 49.4485C135.051 48.9601 135.293 48.9382 135.64 48.9673C135.942 48.9936 136.38 48.8142 136.31 49.4106C136.294 49.5491 136.307 49.692 136.307 50.0157C137.036 49.0913 137.87 48.7341 138.884 48.804C140.351 48.9061 141.469 49.9005 141.865 51.4971C142.104 52.458 142.09 53.4262 141.865 54.39L141.866 54.3915Z" fill="white"/>
<path d="M138.886 48.8054C137.87 48.7354 137.036 49.0926 136.308 50.0171C136.308 49.6919 136.295 49.5505 136.311 49.412C136.381 48.8156 135.943 48.995 135.642 48.9687C135.294 48.9395 135.052 48.9614 135.055 49.4499C135.076 52.837 135.079 56.2256 135.055 59.6143C135.051 60.2967 135.495 60.0648 135.825 60.0998C136.192 60.1392 136.467 60.1261 136.447 59.5982C136.406 58.5265 136.435 57.4519 136.435 56.2548C138.451 58.1358 141.289 56.8774 141.868 54.3928C142.093 53.429 142.106 52.4608 141.868 51.5C141.472 49.9033 140.356 48.9089 138.887 48.8069L138.886 48.8054ZM140.369 54.6349C140.021 55.5345 139.27 56.0725 138.397 56.0521C137.556 56.0332 136.829 55.482 136.546 54.5736C136.193 53.4509 136.195 52.3194 136.665 51.2273C137.048 50.3393 137.807 49.8523 138.635 49.9004C139.446 49.9471 140.15 50.5478 140.44 51.4533C140.596 51.9403 140.651 52.4433 140.625 52.9566C140.647 53.5325 140.58 54.0954 140.37 54.6363L140.369 54.6349Z" fill="#454798"/>
<path d="M162.269 53.1185C161.267 53.2687 160.275 53.4903 159.29 53.7309C158.712 53.8709 158.403 54.2923 158.425 54.9032C158.447 55.5215 158.818 55.8977 159.38 56.0201C160.889 56.3497 162.596 55.6075 162.523 53.658C162.416 53.5151 162.765 53.0427 162.269 53.1185ZM161.381 54.8464C161.086 55.154 160.61 55.3305 160.076 55.3305C159.898 55.3305 159.718 55.3115 159.541 55.2721C159.255 55.2094 159.195 55.0797 159.188 54.877C159.178 54.597 159.275 54.5212 159.47 54.4746C160.15 54.3083 160.931 54.1275 161.752 53.9803C161.719 54.3346 161.595 54.6247 161.381 54.8464Z" fill="white"/>
<path d="M164.768 55.4892C164.74 55.2209 164.712 54.9687 164.706 54.7237C164.692 54.123 164.689 53.5091 164.686 52.9157C164.683 52.3222 164.68 51.7098 164.666 51.1033C164.638 49.9251 164.19 49.0823 163.328 48.5851C163.301 48.5983 163.273 48.6114 163.244 48.6216C162.893 48.7499 162.558 48.8155 162.245 48.8155C161.525 48.8155 161.016 48.4889 160.659 48.0938C160.227 48.5676 159.693 48.8053 159.064 48.8053C158.77 48.8053 158.451 48.7499 158.118 48.6405C157.804 48.8155 157.532 49.0298 157.303 49.2806C157.319 49.4804 157.28 49.6977 157.182 49.9237C157.159 49.9791 157.137 50.0345 157.117 50.0899C157.031 50.3188 156.861 50.7694 156.45 50.9997C156.426 51.182 156.444 51.3876 156.567 51.5961C156.658 51.7521 156.883 52.016 157.348 52.0496C157.379 52.0583 157.441 52.0831 157.485 52.1006C157.577 52.1371 157.686 52.1808 157.81 52.2143C156.677 52.8486 156.066 53.983 156.209 55.2136C156.367 56.5799 157.267 57.5364 158.675 57.8367C159.032 57.9126 159.389 57.9505 159.733 57.9505C160.615 57.9505 161.452 57.7128 162.27 57.2258C162.579 57.6122 163.087 57.8557 163.645 57.8557C163.906 57.8557 164.159 57.8032 164.396 57.6982C164.769 57.5349 164.92 57.2754 164.981 57.0873C165.117 56.6717 164.92 56.3364 164.826 56.1745C164.813 55.9398 164.788 55.7108 164.765 55.4892H164.768ZM164.094 56.9969C163.536 57.2418 162.883 56.9736 162.752 56.5245C162.717 56.4049 162.686 56.2853 162.621 56.0491C161.467 56.9867 160.241 57.3877 158.836 57.0887C157.751 56.8584 157.089 56.1658 156.968 55.1261C156.856 54.158 157.364 53.286 158.309 52.8165C159.147 52.3995 160.078 52.4374 160.965 52.2595C161.214 52.21 161.471 52.1925 161.711 52.1196C162.007 52.0292 162.468 52.1604 162.52 51.6967C162.579 51.1878 162.526 50.6775 162.056 50.3217C160.971 49.4994 159.194 49.9295 158.619 51.1587C158.301 51.8352 157.795 51.3089 157.415 51.2884C157.009 51.2666 157.312 50.886 157.371 50.6906C157.626 49.8551 158.226 49.3433 159.033 49.078C160.083 48.7324 161.158 48.6959 162.226 48.9657C163.354 49.2515 163.877 49.9295 163.904 51.1222C163.932 52.3295 163.916 53.5368 163.944 54.7427C163.957 55.269 164.051 55.794 164.07 56.3218C164.079 56.5507 164.488 56.8248 164.092 56.9983L164.094 56.9969ZM159.157 51.7477C159.212 51.6705 159.263 51.583 159.311 51.4809C159.541 50.991 160.116 50.6629 160.742 50.6629C160.971 50.6629 161.304 50.7096 161.596 50.9312C161.682 50.9968 161.764 51.0828 161.774 51.3293C161.687 51.3395 161.589 51.3555 161.489 51.3876C161.391 51.4182 161.263 51.4357 161.129 51.4561C161.024 51.4722 160.918 51.4882 160.815 51.5086C160.559 51.5596 160.291 51.5917 160.009 51.6267C159.738 51.6588 159.451 51.6938 159.157 51.7492V51.7477Z" fill="white"/>
<path d="M163.944 54.7413C163.915 53.534 163.932 52.3267 163.904 51.1209C163.877 49.9282 163.354 49.2501 162.226 48.9644C161.157 48.6946 160.083 48.7311 159.033 49.0766C158.227 49.342 157.626 49.8553 157.371 50.6893C157.312 50.8832 157.011 51.2652 157.415 51.2871C157.795 51.3075 158.303 51.8339 158.619 51.1573C159.194 49.9282 160.971 49.498 162.056 50.3204C162.526 50.6762 162.577 51.1865 162.52 51.6954C162.468 52.159 162.007 52.0278 161.711 52.1182C161.471 52.1911 161.212 52.2086 160.965 52.2582C160.077 52.4361 159.146 52.3982 158.309 52.8152C157.364 53.2862 156.856 54.1566 156.968 55.1248C157.089 56.163 157.751 56.8556 158.836 57.0874C160.241 57.3863 161.467 56.9853 162.621 56.0478C162.685 56.284 162.717 56.405 162.752 56.5231C162.881 56.9722 163.536 57.2405 164.094 56.9955C164.49 56.822 164.081 56.5494 164.072 56.319C164.051 55.7912 163.957 55.2662 163.945 54.7399L163.944 54.7413ZM162.523 53.6594C162.596 55.6074 160.889 56.3511 159.38 56.0215C158.818 55.8991 158.447 55.5229 158.425 54.9046C158.405 54.2937 158.712 53.8723 159.29 53.7323C160.275 53.4932 161.267 53.2716 162.269 53.1199C162.765 53.0456 162.416 53.518 162.523 53.6594Z" fill="#434597"/>
<path d="M121.279 52.4843V52.4361C121.275 52.3793 121.273 52.3224 121.268 52.2641C121.074 49.9166 119.537 48.2631 117.351 48.0531C117.187 48.0371 117.021 48.0298 116.859 48.0298C114.796 48.0298 113.119 49.3406 112.586 51.3688C112.377 52.1693 112.32 52.9873 112.418 53.7995C112.489 54.3958 112.632 54.9353 112.84 55.4136C112.976 55.5667 113.045 55.7329 113.08 55.8875C113.739 57.0131 114.833 57.7159 116.295 57.9157C116.536 57.9492 116.779 57.9653 117.018 57.9653C118.853 57.9653 120.386 56.9796 121.017 55.3932C121.024 55.3757 121.033 55.3582 121.042 55.3392C121.119 55.1715 121.324 54.7268 121.059 54.2559C120.987 54.1261 120.891 54.0284 120.783 53.954C120.859 53.9103 120.93 53.8534 120.997 53.7834C121.321 53.4437 121.304 53.0413 121.279 52.4857V52.4843ZM119.742 53.3562C119 53.3562 118.259 53.3562 117.517 53.3562C116.669 53.3562 115.822 53.3533 114.973 53.3591C114.78 53.3591 114.551 53.2833 114.566 53.6537C114.62 55.0622 115.766 56.1397 117.159 56.0493C118.037 55.9924 118.588 55.4923 118.949 54.7254C119.066 54.4789 120.263 54.3987 120.393 54.6306C120.485 54.7924 120.368 54.9543 120.307 55.1103C119.718 56.5932 118.176 57.401 116.398 57.1575C114.521 56.9008 113.417 55.7271 113.176 53.7105C113.09 52.9888 113.141 52.2685 113.326 51.5657C113.812 49.7095 115.365 48.6334 117.278 48.8172C119.083 48.9907 120.345 50.3627 120.506 52.3297C120.512 52.3924 120.512 52.4566 120.515 52.5207C120.539 53.0787 120.281 53.3577 119.741 53.3577L119.742 53.3562ZM118.463 54.1217C118.38 54.199 118.309 54.2894 118.258 54.3987C117.983 54.9849 117.639 55.2503 117.11 55.2853C117.072 55.2882 117.034 55.2896 116.996 55.2896C116.251 55.2896 115.637 54.8143 115.416 54.1232C115.667 54.1232 115.921 54.1232 116.172 54.1232H118.463V54.1217Z" fill="white"/>
<path d="M116.772 49.9368C115.731 49.9762 114.82 50.7883 114.678 51.8104C114.649 52.0146 114.58 52.2347 114.938 52.2318C116.309 52.2216 117.682 52.2275 119.086 52.2275C119.048 51.9854 119.028 51.7973 118.987 51.6136C118.743 50.5317 117.897 49.893 116.771 49.9353L116.772 49.9368ZM116.819 51.4605C116.407 51.4605 115.996 51.4605 115.586 51.4634C115.823 51.0304 116.29 50.7212 116.8 50.7023C116.824 50.7023 116.851 50.7023 116.875 50.7023C117.479 50.7023 117.917 50.9706 118.137 51.4634C118.072 51.4634 117.191 51.4634 116.819 51.4634V51.4605Z" fill="white"/>
<path d="M120.506 52.3266C120.345 50.361 119.083 48.9875 117.278 48.814C115.366 48.6303 113.813 49.7049 113.326 51.5625C113.141 52.2653 113.09 52.9856 113.176 53.7074C113.417 55.7254 114.52 56.8977 116.398 57.1543C118.175 57.3978 119.716 56.59 120.307 55.1071C120.368 54.9526 120.484 54.7907 120.393 54.6274C120.262 54.3956 119.064 54.4758 118.949 54.7222C118.59 55.4877 118.037 55.9893 117.159 56.0462C115.766 56.1366 114.619 55.059 114.566 53.6505C114.551 53.2802 114.781 53.3574 114.973 53.356C115.82 53.3501 116.669 53.3531 117.517 53.3531C118.259 53.3531 119 53.3531 119.742 53.3531C120.283 53.3531 120.541 53.0741 120.516 52.5161C120.514 52.452 120.512 52.3893 120.508 52.3251L120.506 52.3266ZM114.938 52.2318C114.58 52.2347 114.649 52.0145 114.678 51.8104C114.819 50.7883 115.73 49.9761 116.772 49.9367C117.898 49.8945 118.744 50.5331 118.988 51.615C119.029 51.7987 119.05 51.9868 119.087 52.2289C117.683 52.2289 116.311 52.223 114.94 52.2332L114.938 52.2318Z" fill="#434597"/>
<path d="M182.009 54.1536C181.939 54.0603 181.853 53.983 181.751 53.9203C181.831 53.878 181.904 53.8255 181.973 53.7613C181.955 53.5514 181.959 53.3487 181.964 53.1694C181.965 53.095 181.967 53.0206 181.967 52.9463C181.965 52.4009 182.024 51.8877 182.141 51.4109C181.683 49.4527 180.091 48.1098 178.104 48.0398C178.042 48.0369 177.979 48.0369 177.918 48.0369C175.792 48.0369 174.14 49.2981 173.606 51.3278C173.367 52.2347 173.392 53.1198 173.44 53.7876C173.601 56.0418 175.093 57.6238 177.333 57.9184C177.567 57.949 177.804 57.965 178.034 57.965C179.881 57.965 181.414 56.9692 182.034 55.374C182.04 55.3609 182.047 55.3478 182.053 55.3346C182.124 55.1932 182.172 55.0561 182.194 54.9234C182.12 54.6843 182.061 54.4335 182.021 54.174C182.016 54.1667 182.012 54.1609 182.006 54.1536H182.009ZM180.153 53.356C179.624 53.356 179.094 53.356 178.564 53.356C177.717 53.356 176.869 53.3662 176.022 53.3502C175.712 53.3443 175.562 53.3968 175.597 53.7657C175.702 54.8549 176.455 55.7852 177.461 56.0083C178.535 56.2474 179.352 55.8289 179.947 54.7339C180.081 54.486 181.226 54.3854 181.398 54.6143C181.524 54.782 181.383 54.9395 181.325 55.0882C180.744 56.5828 179.216 57.392 177.432 57.1573C175.555 56.9094 174.336 55.6248 174.201 53.7293C174.147 52.9871 174.152 52.2464 174.344 51.5188C174.801 49.7851 176.239 48.7367 178.077 48.8009C179.792 48.8607 181.13 50.0505 181.441 51.7973C181.627 52.8345 181.197 53.3531 180.152 53.3531L180.153 53.356ZM179.475 54.1215C179.397 54.1915 179.328 54.2731 179.277 54.3694C178.825 55.2019 178.369 55.3098 178.021 55.3098C177.901 55.3098 177.768 55.2938 177.628 55.2632C177.084 55.1422 176.639 54.6974 176.45 54.123C176.653 54.1244 176.873 54.1259 177.119 54.1259C177.365 54.1259 177.605 54.1259 177.85 54.1244C178.088 54.1244 178.327 54.123 178.567 54.123H179.477L179.475 54.1215Z" fill="white"/>
<path d="M177.947 49.934C176.786 49.9209 175.841 50.7301 175.694 51.8295C175.652 52.1416 175.723 52.2436 176.039 52.2334C176.65 52.2159 177.262 52.2276 177.874 52.229C178.486 52.229 179.098 52.213 179.708 52.2349C180.041 52.2465 180.086 52.1095 180.052 51.8222C179.925 50.7418 179.046 49.9457 177.946 49.934H177.947ZM178.954 51.4577C178.772 51.4577 178.59 51.4577 178.408 51.4606C178.231 51.4606 178.052 51.4635 177.874 51.4635C177.698 51.4635 177.521 51.4635 177.345 51.4606C177.161 51.4606 176.979 51.4577 176.796 51.4577C176.729 51.4577 176.665 51.4577 176.602 51.4577C176.848 50.9984 177.343 50.698 177.919 50.698H177.937C178.487 50.7039 178.943 50.9999 179.162 51.4562C179.095 51.4562 179.026 51.4562 178.953 51.4562L178.954 51.4577Z" fill="white"/>
<path d="M178.078 48.8038C176.24 48.7397 174.801 49.7866 174.345 51.5217C174.153 52.2493 174.149 52.99 174.203 53.7322C174.339 55.6277 175.556 56.9123 177.433 57.1602C179.216 57.3949 180.746 56.5842 181.326 55.0911C181.385 54.9424 181.526 54.7849 181.399 54.6172C181.226 54.3869 180.082 54.4889 179.948 54.7368C179.353 55.8318 178.537 56.2503 177.462 56.0112C176.457 55.7866 175.703 54.8578 175.598 53.7686C175.563 53.3997 175.713 53.3487 176.023 53.3531C176.87 53.3677 177.719 53.3589 178.566 53.3589C179.095 53.3589 179.625 53.3589 180.155 53.3589C181.201 53.3589 181.631 52.8403 181.444 51.8031C181.131 50.0578 179.795 48.868 178.08 48.8067L178.078 48.8038ZM179.708 52.2347C179.097 52.2128 178.486 52.2289 177.874 52.2289C177.263 52.2289 176.65 52.2158 176.039 52.2333C175.723 52.242 175.652 52.1399 175.694 51.8294C175.841 50.7314 176.786 49.9222 177.947 49.9338C179.047 49.9455 179.926 50.7431 180.053 51.8221C180.086 52.1093 180.043 52.2464 179.709 52.2347H179.708Z" fill="#434597"/>
<path d="M186.336 49.9486C185.401 49.9952 184.758 50.4939 184.384 51.3367C184.158 51.847 184.087 52.3909 184.113 52.9479C184.083 53.5471 184.145 54.1362 184.394 54.6845C184.776 55.5214 185.42 56.0113 186.36 56.0507C187.299 56.0915 188.03 55.6905 188.426 54.855C188.995 53.6507 189.015 52.3894 188.446 51.1777C188.041 50.316 187.295 49.899 186.336 49.9471V49.9486ZM187.736 54.5284C187.494 55.0402 187.087 55.2881 186.488 55.2881C186.458 55.2881 186.426 55.2881 186.394 55.2866C185.771 55.2604 185.369 54.9761 185.09 54.3666C184.917 53.986 184.848 53.5471 184.876 52.9858C184.876 52.961 184.876 52.9362 184.876 52.9114C184.853 52.4259 184.921 52.0118 185.083 51.6472C185.35 51.0407 185.761 50.7432 186.373 50.7126C186.41 50.7111 186.446 50.7097 186.481 50.7097C187.085 50.7097 187.503 50.9692 187.753 51.5043C188.22 52.4958 188.213 53.5136 187.734 54.527L187.736 54.5284Z" fill="white"/>
<path d="M190.952 52.162C190.709 50.0799 189.459 48.5882 187.606 48.1712C187.187 48.0764 186.771 48.0283 186.371 48.0283C185.17 48.0283 184.118 48.4482 183.327 49.2415C182.753 49.8189 182.354 50.5537 182.144 51.4096C182.026 51.8864 181.968 52.4011 181.97 52.945C181.97 53.0194 181.968 53.0937 181.967 53.1681C181.962 53.3475 181.958 53.5501 181.975 53.7601C181.975 53.7645 181.975 53.7688 181.975 53.7732C181.987 53.9088 182.003 54.0415 182.025 54.1727C182.066 54.4337 182.124 54.6845 182.198 54.9222C182.737 56.6442 184.121 57.7655 186.011 57.9332C186.162 57.9463 186.317 57.9536 186.467 57.9536C188.562 57.9536 190.297 56.65 190.786 54.7093C190.997 53.8738 191.052 53.0165 190.953 52.1606L190.952 52.162ZM190.044 54.5241C189.606 56.2636 187.979 57.3426 186.077 57.1735C184.182 57.0058 182.907 55.6877 182.735 53.7091C182.713 53.4568 182.732 53.2002 182.732 52.9465C182.722 50.0113 184.722 48.3068 187.439 48.9178C188.971 49.2633 189.988 50.4794 190.194 52.251C190.282 53.0135 190.233 53.779 190.045 54.5241H190.044Z" fill="white"/>
<path d="M187.437 48.9177C184.72 48.3053 182.721 50.0098 182.731 52.9464C182.731 53.2002 182.712 53.4568 182.734 53.709C182.907 55.6891 184.18 57.0058 186.075 57.1735C187.977 57.3426 189.604 56.2636 190.042 54.5241C190.23 53.779 190.28 53.0135 190.191 52.2509C189.984 50.4794 188.968 49.2633 187.436 48.9177H187.437ZM188.425 54.8551C188.031 55.6906 187.299 56.0901 186.36 56.0507C185.422 56.0099 184.777 55.5214 184.394 54.6845C184.144 54.1363 184.083 53.5472 184.113 52.9479C184.087 52.3924 184.158 51.847 184.384 51.3367C184.757 50.4939 185.4 49.9938 186.336 49.9486C187.295 49.9005 188.041 50.3175 188.446 51.1792C189.016 52.3909 188.995 53.6522 188.425 54.8566V54.8551Z" fill="#424497"/>
<path d="M148.292 48.2193C147.841 48.091 147.379 48.0269 146.919 48.0269C145.084 48.0269 143.472 49.065 142.811 50.6704C142.728 50.8701 142.658 51.0743 142.598 51.2799C142.275 52.4011 142.293 53.5866 142.594 54.6349C142.94 55.835 143.659 56.8571 144.669 57.401C145.014 57.5876 145.387 57.729 145.746 57.8107C146.179 57.9098 146.606 57.9594 147.017 57.9594C149.641 57.9594 151.416 55.9735 151.437 53.0179C151.454 50.5421 150.307 48.7953 148.292 48.2222V48.2193ZM145.915 57.0612C145.609 56.9912 145.307 56.8717 145.03 56.7229C143.303 55.7941 142.614 53.1491 143.515 50.9591C144.214 49.2619 146.16 48.4074 148.082 48.9542C149.75 49.4281 150.687 50.8949 150.673 53.0077C150.652 55.9881 148.663 57.6882 145.915 57.0598V57.0612Z" fill="white"/>
<path d="M149.056 51.4912C148.705 50.5362 147.91 49.95 146.954 49.9427C145.946 49.934 145.132 50.4968 144.795 51.4883C144.442 52.5221 144.451 53.5705 144.824 54.5955C145.157 55.5141 145.963 56.0507 146.918 56.0536C147.873 56.0565 148.657 55.5156 149.016 54.6013C149.22 54.0823 149.293 53.5413 149.273 52.9858C149.294 52.474 149.233 51.9739 149.056 51.4898V51.4912ZM148.305 54.3214C148.063 54.9352 147.561 55.2881 146.919 55.2881C146.262 55.2866 145.759 54.9382 145.541 54.3345C145.23 53.4772 145.222 52.6023 145.518 51.7347C145.743 51.0728 146.245 50.7068 146.932 50.7068H146.948C147.589 50.7126 148.097 51.0946 148.338 51.7551C148.471 52.1168 148.527 52.509 148.509 52.9537C148.509 52.9741 148.509 52.9945 148.509 53.0149C148.527 53.499 148.461 53.9262 148.305 54.3199V54.3214Z" fill="white"/>
<path d="M148.082 48.9555C146.16 48.4101 144.214 49.2646 143.515 50.9604C142.614 53.1504 143.303 55.7939 145.03 56.7242C145.307 56.8729 145.609 56.9925 145.915 57.0625C148.663 57.6909 150.652 55.9908 150.673 53.0104C150.687 50.8962 149.75 49.4294 148.082 48.9569V48.9555ZM149.016 54.6012C148.657 55.5154 147.872 56.0564 146.918 56.0535C145.963 56.0506 145.157 55.514 144.824 54.5954C144.451 53.5703 144.442 52.5205 144.794 51.4882C145.132 50.4967 145.946 49.9339 146.954 49.9426C147.91 49.9514 148.703 50.5375 149.056 51.4911C149.233 51.9737 149.293 52.4739 149.272 52.9871C149.293 53.5426 149.22 54.0836 149.016 54.6027V54.6012Z" fill="#424497"/>
<path d="M95.6215 48.0412C95.5385 48.0383 95.457 48.0354 95.3755 48.0354C93.0222 48.0354 91.3195 49.4789 90.9338 51.8017C90.8698 52.1851 90.8509 52.5686 90.8538 52.9448C90.8538 53.1723 90.864 53.3954 90.8742 53.6141C90.8887 53.8969 90.9251 54.1711 90.9804 54.435C91.4228 56.523 93.1198 57.965 95.2649 57.965C95.783 57.965 96.3113 57.8805 96.8323 57.7113C98.8567 57.0596 99.8813 55.4586 99.8769 52.9536C99.8769 52.9054 99.8769 52.8573 99.8798 52.8092C99.8827 52.6823 99.8856 52.5365 99.8725 52.382C99.6615 49.8449 97.9937 48.1418 95.62 48.0412H95.6215ZM99.1143 52.9536C99.1172 55.1145 98.2877 56.4399 96.5995 56.9837C94.0657 57.8003 91.7721 56.2328 91.6368 53.5762C91.6091 53.0279 91.5975 52.4666 91.6877 51.9285C92.0253 49.8974 93.5229 48.7192 95.5895 48.8067C97.5702 48.8913 98.9338 50.2984 99.1128 52.4461C99.1274 52.6138 99.1143 52.7844 99.1143 52.955V52.9536Z" fill="white"/>
<path d="M95.3334 49.9427C94.3816 49.9515 93.587 50.4866 93.2566 51.4241C92.887 52.4711 92.884 53.5457 93.2653 54.5911C93.6132 55.5491 94.4165 56.0682 95.4149 56.0521C96.355 56.0376 97.1395 55.4718 97.4771 54.5459C97.659 54.0458 97.7245 53.5209 97.7318 52.9887C97.7318 52.4346 97.6605 51.8893 97.4538 51.3746C97.0929 50.4764 96.275 49.9325 95.3334 49.9413V49.9427ZM96.7596 54.2849C96.5355 54.9032 96.0276 55.2779 95.4032 55.2866H95.3712C94.8968 55.2866 94.271 55.1204 93.9828 54.3287C93.6656 53.4567 93.6641 52.5658 93.977 51.6779C94.1924 51.0669 94.6887 50.7126 95.3392 50.7068H95.3538C95.9854 50.7068 96.5049 51.0625 96.7451 51.6604C96.895 52.0336 96.9677 52.4681 96.9677 52.9785C96.9605 53.4903 96.8921 53.9175 96.7596 54.2835V54.2849Z" fill="white"/>
<path d="M95.5895 48.8053C93.5229 48.7178 92.0254 49.896 91.6877 51.9271C91.5989 52.4652 91.6091 53.0265 91.6368 53.5748C91.7707 56.2314 94.0643 57.7989 96.5995 56.9823C98.2862 56.4385 99.1172 55.1145 99.1143 52.9522C99.1143 52.783 99.126 52.6124 99.1129 52.4433C98.9353 50.2955 97.5716 48.887 95.5895 48.8039V48.8053ZM97.477 54.5473C97.1409 55.4732 96.355 56.0389 95.4148 56.0535C94.415 56.0696 93.6131 55.5505 93.2653 54.5925C92.8855 53.5456 92.8884 52.4724 93.2566 51.4255C93.5869 50.488 94.3815 49.9529 95.3333 49.9441C96.2749 49.9368 97.0928 50.4792 97.4538 51.3774C97.6604 51.8921 97.7317 52.4374 97.7317 52.9915C97.7245 53.5237 97.659 54.0472 97.477 54.5488V54.5473Z" fill="#424497"/>
<path d="M173.255 51.1018C173.185 49.4745 172.303 48.4757 170.63 48.1316C170.323 48.0689 170.018 48.0354 169.729 48.0354C169.033 48.0354 168.381 48.2206 167.779 48.5866C167.76 48.5618 167.741 48.5384 167.719 48.5166C167.521 48.3037 167.252 48.1943 166.921 48.1943C166.856 48.1943 166.788 48.1987 166.719 48.2045C166.693 48.206 166.667 48.2089 166.641 48.2104C166.561 48.2031 166.473 48.1958 166.382 48.1958C166.047 48.1958 165.773 48.3008 165.568 48.5078C165.351 48.7265 165.243 49.0298 165.246 49.4075C165.267 51.8614 165.267 54.2746 165.246 56.5798C165.243 56.9662 165.351 57.2739 165.568 57.4926C165.706 57.6326 165.955 57.7988 166.351 57.7988C166.446 57.7988 166.531 57.7901 166.6 57.7828C166.63 57.7799 166.661 57.7755 166.689 57.7755C166.719 57.7755 166.753 57.7799 166.786 57.7828C166.856 57.7886 166.942 57.7974 167.036 57.7974C167.371 57.7974 167.645 57.6895 167.849 57.4751C168.067 57.2462 168.167 56.9312 168.15 56.5405C168.124 55.9733 168.131 55.409 168.14 54.8112L168.144 54.4233C168.147 54.1667 168.144 53.9101 168.141 53.6622C168.134 53.0323 168.127 52.4359 168.208 51.8542C168.304 51.1674 168.77 50.7562 169.452 50.7562C169.48 50.7562 169.506 50.7562 169.534 50.7577C170.008 50.7795 170.371 50.8772 170.382 51.8891C170.394 52.8719 170.391 53.8736 170.39 54.8418C170.39 55.2544 170.39 55.6656 170.39 56.0783C170.39 56.6921 170.39 57.8353 171.679 57.8353C171.857 57.8353 172.06 57.8148 172.309 57.7842C172.935 57.7084 173.306 57.2885 173.3 56.6615C173.296 56.0695 173.297 55.4644 173.3 54.8797C173.303 53.6447 173.308 52.3674 173.254 51.1047L173.255 51.1018ZM172.539 56.6644C172.541 56.8977 172.468 56.9925 172.22 57.0216C171.234 57.1412 171.157 57.0829 171.157 56.0739C171.157 54.6756 171.165 53.2758 171.149 51.8775C171.135 50.6352 170.624 50.0403 169.572 49.9907C168.451 49.9382 167.61 50.6323 167.454 51.7448C167.329 52.6313 167.392 53.5222 167.383 54.4117C167.376 55.132 167.355 55.8537 167.389 56.574C167.416 57.1704 167.004 57.0129 166.703 57.0085C166.411 57.0041 166.006 57.1908 166.012 56.5857C166.034 54.19 166.031 51.7958 166.012 49.4002C166.008 48.9278 166.27 48.9423 166.577 48.9715C166.852 48.9977 167.274 48.8024 167.233 49.3666C167.221 49.5329 167.231 49.6991 167.231 50.0505C168.185 48.9715 169.238 48.6245 170.477 48.8796C171.758 49.1436 172.436 49.8216 172.493 51.1339C172.571 52.9754 172.526 54.8214 172.541 56.6644H172.539Z" fill="white"/>
<path d="M172.491 51.1339C172.436 49.8216 171.756 49.1436 170.475 48.8797C169.237 48.6245 168.183 48.9716 167.23 50.0506C167.23 49.6992 167.22 49.5329 167.231 49.3667C167.272 48.801 166.85 48.9978 166.575 48.9716C166.268 48.9409 166.006 48.9278 166.01 49.4002C166.031 51.7959 166.032 54.1901 166.01 56.5857C166.005 57.1908 166.409 57.0042 166.702 57.0086C167.003 57.013 167.415 57.1704 167.387 56.5741C167.354 55.8552 167.373 55.1335 167.381 54.4117C167.392 53.5223 167.329 52.6299 167.453 51.7449C167.608 50.6323 168.45 49.9383 169.57 49.9908C170.621 50.0403 171.133 50.6352 171.148 51.8775C171.164 53.2759 171.154 54.6756 171.155 56.0739C171.155 57.0829 171.232 57.1413 172.219 57.0217C172.468 56.9911 172.541 56.8963 172.538 56.6645C172.523 54.82 172.568 52.974 172.49 51.1339H172.491Z" fill="#434597"/>
<path d="M105.704 48.2162C105.265 48.0952 104.837 48.0325 104.434 48.0325C103.735 48.0325 103.082 48.2147 102.483 48.5763C102.47 48.5603 102.459 48.5457 102.444 48.5311C102.243 48.3066 101.965 48.1943 101.618 48.1943C101.556 48.1943 101.492 48.1972 101.428 48.2016C101.399 48.2031 101.369 48.206 101.338 48.206C101.338 48.206 101.287 48.2031 101.262 48.2016C101.195 48.1972 101.13 48.1943 101.067 48.1943C100.727 48.1943 100.449 48.2993 100.244 48.5078C100.025 48.728 99.9177 49.0342 99.9206 49.4177C99.9439 51.8891 99.9351 54.4189 99.9264 56.5973C99.925 56.9823 100.034 57.287 100.249 57.5043C100.386 57.6413 100.628 57.8046 101.012 57.8046C101.13 57.8046 101.235 57.79 101.319 57.7784C101.344 57.7755 101.37 57.7696 101.392 57.7682C101.488 57.7813 101.606 57.7988 101.735 57.7988C102.149 57.7988 102.403 57.6224 102.545 57.4736C102.763 57.2433 102.863 56.9283 102.843 56.539C102.804 55.7793 102.823 54.9963 102.837 54.3052C102.843 54.0165 102.837 53.7322 102.831 53.4566C102.818 52.8456 102.807 52.2697 102.927 51.7258C103.061 51.1163 103.514 50.7533 104.137 50.7533C104.179 50.7533 104.221 50.7547 104.265 50.7576C104.725 50.7926 105.01 50.8626 105.087 51.8119C105.102 51.9839 105.1 52.1676 105.1 52.363V52.5132C105.1 52.8704 105.1 53.2262 105.103 53.5834C105.107 54.5633 105.11 55.5781 105.091 56.5696C105.084 56.9516 105.19 57.2578 105.41 57.4809C105.551 57.6253 105.803 57.7959 106.203 57.7959C106.298 57.7959 106.398 57.7871 106.515 57.7667C106.538 57.7696 106.561 57.774 106.586 57.7784C106.676 57.793 106.79 57.8105 106.916 57.8105C107.296 57.8105 107.538 57.6472 107.673 57.5101C107.886 57.2943 107.992 56.9954 107.988 56.6207C107.982 56.0039 107.988 55.3725 107.995 54.763C108.008 53.5047 108.022 52.2041 107.925 50.9107C107.823 49.5606 107.014 48.5778 105.704 48.2147V48.2162ZM107.225 56.6294C107.232 57.2885 106.714 56.9516 106.423 57.007C106.125 57.0639 105.848 57.061 105.857 56.5857C105.883 55.2282 105.867 53.8707 105.866 52.5132C105.866 52.2595 105.871 52.0029 105.851 51.7506C105.756 50.5841 105.307 50.0694 104.326 49.9951C103.258 49.9134 102.409 50.5346 102.184 51.5611C101.984 52.4636 102.096 53.3793 102.076 54.2877C102.058 55.0503 102.044 55.8158 102.082 56.5769C102.109 57.1149 101.763 57.0464 101.466 57.0056C101.177 56.9662 100.69 57.2666 100.693 56.6002C100.704 54.2031 100.709 51.8075 100.688 49.4104C100.683 48.8796 101 48.9569 101.31 48.97C101.594 48.9817 102.003 48.8257 101.944 49.3841C101.926 49.5474 101.941 49.7151 101.941 50.0374C102.99 48.8417 104.17 48.5836 105.503 48.9525C106.493 49.2267 107.088 49.9411 107.165 50.9676C107.308 52.8515 107.207 54.7412 107.226 56.6279L107.225 56.6294Z" fill="white"/>
<path d="M107.164 50.9693C107.087 49.9428 106.491 49.2283 105.502 48.9542C104.169 48.5853 102.988 48.8434 101.939 50.039C101.939 49.7153 101.925 49.5491 101.942 49.3858C102.002 48.8274 101.594 48.9834 101.309 48.9717C101 48.9586 100.682 48.8813 100.686 49.4121C100.708 51.8077 100.702 54.2048 100.692 56.6019C100.689 57.2683 101.175 56.9679 101.465 57.0073C101.762 57.0481 102.108 57.1166 102.08 56.5786C102.041 55.8175 102.057 55.052 102.074 54.2894C102.095 53.3795 101.983 52.4653 102.182 51.5628C102.409 50.5377 103.256 49.9151 104.324 49.9968C105.304 50.0726 105.755 50.5858 105.85 51.7523C105.87 52.006 105.864 52.2612 105.864 52.5149C105.864 53.8724 105.882 55.2299 105.855 56.5874C105.847 57.0627 106.123 57.0642 106.422 57.0087C106.711 56.9533 107.229 57.2902 107.223 56.6311C107.205 54.7443 107.305 52.8546 107.162 50.9708L107.164 50.9693Z" fill="#434598"/>
<path d="M112.806 55.3771C112.591 55.1569 112.292 55.0461 111.92 55.0461C111.92 55.0461 111.805 55.0476 111.77 55.0476C111.735 55.0476 111.706 55.0476 111.68 55.0476C111.677 54.9892 111.674 54.912 111.672 54.8099C111.667 54.3039 111.67 53.7863 111.672 53.2847C111.677 52.4901 111.681 51.6662 111.652 50.8512C111.652 50.838 111.652 50.8249 111.652 50.8118C111.732 50.8235 111.808 50.8293 111.882 50.8293C112.291 50.8293 112.549 50.6558 112.693 50.51C113.042 50.1571 113.039 49.6541 113.038 49.4893C113.03 48.6684 112.57 48.196 111.774 48.196C111.774 48.196 111.684 48.196 111.668 48.1974C111.668 48.1653 111.668 48.1333 111.668 48.0997C111.667 47.6856 111.667 47.273 111.668 46.8487V46.2538C111.668 45.9957 111.54 45.7566 111.325 45.6151C111.198 45.532 111.051 45.4883 110.904 45.4883C110.802 45.4883 110.699 45.5087 110.603 45.551C109.038 46.2246 108.788 46.4565 108.788 48.1493C108.788 48.1493 108.788 48.1872 108.787 48.2003C108.426 48.2091 108.197 48.368 108.068 48.5022C107.758 48.8229 107.772 49.2356 107.779 49.4572V49.5199C107.782 49.5462 107.779 49.5724 107.779 49.5987C107.774 49.8101 107.762 50.2052 108.065 50.5187C108.196 50.6529 108.429 50.8132 108.797 50.8176C108.776 52.4113 108.784 54.0313 108.82 55.6337C108.849 56.9095 109.644 57.7363 110.946 57.8442C111.047 57.8529 111.151 57.8558 111.269 57.8558C111.387 57.8558 111.495 57.8515 111.607 57.8486C111.702 57.8456 111.798 57.8413 111.892 57.8413H111.978C112.533 57.8413 112.828 57.5948 112.978 57.3893C113.094 57.2274 113.263 56.8848 113.113 56.3788C113.113 56.3569 113.113 56.3351 113.113 56.3132C113.115 56.2067 113.118 56.0551 113.08 55.8889C113.045 55.7343 112.976 55.5681 112.84 55.415C112.828 55.4033 112.818 55.3902 112.805 55.3785L112.806 55.3771ZM111.959 57.0758C111.642 57.0699 111.323 57.1064 111.009 57.0801C110.101 57.0043 109.603 56.5232 109.583 55.6148C109.546 53.9846 109.539 52.3515 109.561 50.7214C109.568 50.2256 109.487 49.953 108.92 50.0405C108.462 50.1119 108.548 49.7663 108.543 49.5039C108.538 49.2298 108.484 48.9017 108.931 48.9731C109.52 49.0694 109.615 48.75 109.551 48.2762C109.545 48.2339 109.551 48.1916 109.551 48.1493C109.551 47.2725 110.002 46.6402 110.904 46.2523C110.904 46.8895 110.901 47.4961 110.904 48.1012C110.908 49.1102 110.836 48.979 111.734 48.96C112.147 48.9513 112.271 49.0723 112.274 49.4937C112.278 49.9442 112.137 50.125 111.699 50.0434C110.997 49.9107 110.869 50.2475 110.89 50.8774C110.935 52.1897 110.894 53.5049 110.908 54.8172C110.919 55.6935 111.039 55.8291 111.895 55.8116C112.537 55.7985 112.279 56.2869 112.372 56.5713C112.487 56.9241 112.317 57.0816 111.959 57.0758Z" fill="white"/>
<path d="M111.897 55.8115C111.042 55.829 110.92 55.6919 110.91 54.8171C110.895 53.5033 110.936 52.1881 110.891 50.8773C110.869 50.2488 110.999 49.912 111.7 50.0432C112.137 50.1249 112.278 49.9441 112.275 49.4935C112.272 49.0722 112.148 48.9511 111.735 48.9599C110.837 48.9788 110.911 49.1101 110.905 48.1011C110.903 47.4945 110.905 46.8894 110.905 46.2522C110.003 46.641 109.552 47.2734 109.552 48.1492C109.552 48.1915 109.548 48.2352 109.552 48.276C109.616 48.7499 109.521 49.0678 108.932 48.973C108.485 48.9001 108.539 49.2296 108.545 49.5038C108.549 49.7662 108.463 50.1132 108.922 50.0403C109.488 49.9514 109.569 50.224 109.562 50.7213C109.54 52.3514 109.548 53.9845 109.584 55.6146C109.604 56.5216 110.102 57.0042 111.01 57.08C111.325 57.1063 111.643 57.0713 111.961 57.0756C112.319 57.0815 112.49 56.924 112.374 56.5711C112.281 56.2868 112.538 55.7983 111.897 55.8115Z" fill="#424497"/>
<path d="M90.0941 32.7285C90.1087 35.0921 90.1087 37.5504 90.0941 40.0306C90.0941 40.2406 90.0897 40.6766 90.4157 41.0032C90.6209 41.2102 90.896 41.3152 91.2322 41.3152C91.286 41.3152 91.3428 41.3123 91.4054 41.3065C91.5771 41.2904 91.7605 41.2832 91.9497 41.2832C92.1389 41.2832 92.3397 41.2904 92.5463 41.3065C92.5973 41.3109 92.6439 41.3123 92.6875 41.3123C93.0252 41.3123 93.3002 41.2073 93.5054 40.9988C93.827 40.6708 93.8212 40.2275 93.8183 40.0598C93.8052 39.1762 93.8067 38.2736 93.8096 37.4002C93.8096 37.062 93.811 36.7222 93.811 36.384C93.811 36.139 93.811 35.8955 93.8139 35.6505C93.8169 35.0746 93.8198 34.4782 93.8067 33.8862C93.8038 33.7725 93.8212 33.6194 93.8401 33.4576C93.9013 32.9283 93.9842 32.2036 93.4152 31.737C93.3744 31.7035 93.3322 31.6743 93.29 31.6466C92.964 31.8609 92.5725 31.8609 91.97 31.8609C91.3326 31.8609 90.9251 31.8609 90.5889 31.6189C90.5263 31.6597 90.4681 31.7064 90.4143 31.7603C90.0883 32.0899 90.0912 32.5375 90.0912 32.7285H90.0941ZM91.3413 32.2182C91.8842 32.2663 92.5987 32.0549 92.9335 32.3304C93.2886 32.6221 93.0324 33.3628 93.0441 33.9066C93.063 34.7334 93.0484 35.5601 93.0484 36.3869C93.0484 37.616 93.0368 38.8452 93.0557 40.0744C93.0615 40.42 92.9844 40.5745 92.6046 40.5468C92.184 40.5147 91.7546 40.5089 91.3355 40.5468C90.9135 40.5862 90.8567 40.4025 90.8582 40.0365C90.8727 37.6 90.8727 35.1621 90.8582 32.7241C90.8552 32.3523 90.9266 32.1817 91.3413 32.2182Z" fill="white"/>
<path d="M90.8582 40.0363C90.8567 40.4008 90.9135 40.586 91.3355 40.5466C91.7561 40.5072 92.184 40.5131 92.6046 40.5466C92.983 40.5758 93.0601 40.4212 93.0557 40.0742C93.0368 38.845 93.0485 37.6158 93.0485 36.3867C93.0485 35.5599 93.063 34.7332 93.0441 33.9064C93.031 33.3626 93.2886 32.6219 92.9335 32.3302C92.5988 32.0561 91.8842 32.2661 91.3414 32.218C90.9266 32.1815 90.8567 32.3521 90.8582 32.7239C90.8727 35.1604 90.8727 37.5983 90.8582 40.0363Z" fill="#00A759"/>
<path d="M157.12 50.0901C157.14 50.0347 157.162 49.9778 157.185 49.9238C157.284 49.6978 157.323 49.4806 157.306 49.2808C157.273 48.8828 157.018 48.5518 156.564 48.3418C156.097 48.126 155.698 48.0269 155.309 48.0269C154.785 48.0269 154.337 48.2179 153.947 48.508C153.74 48.301 153.46 48.196 153.112 48.196C153.036 48.196 152.957 48.2004 152.863 48.2091C152.835 48.2091 152.806 48.2077 152.777 48.2047C152.719 48.2018 152.661 48.1989 152.604 48.1989C152.273 48.1989 152.003 48.3024 151.8 48.5066C151.585 48.7238 151.476 49.0286 151.479 49.4091C151.495 51.5686 151.495 53.8476 151.482 56.583C151.48 56.9694 151.589 57.2756 151.806 57.4957C151.945 57.6342 152.192 57.8005 152.585 57.8005C152.688 57.8005 152.781 57.7903 152.856 57.7815C152.885 57.7786 152.912 57.7742 152.939 57.7728C153.032 57.7844 153.138 57.7961 153.256 57.7961C153.673 57.7961 153.93 57.6226 154.071 57.4753C154.291 57.2493 154.397 56.9358 154.385 56.5465C154.36 55.66 154.366 54.7516 154.371 53.8724C154.372 53.5632 154.375 53.2556 154.375 52.9465C154.375 52.3399 154.443 51.8602 154.587 51.4388C154.689 51.1413 154.906 50.9635 155.059 50.9635C155.088 50.9635 155.117 50.9693 155.149 50.9824C155.413 51.0932 155.648 51.1472 155.87 51.1472C156.105 51.1472 156.297 51.0903 156.455 51.0014C156.865 50.7695 157.035 50.319 157.121 50.0915L157.12 50.0901ZM155.443 50.2752C154.791 50.0011 154.109 50.4721 153.864 51.1909C153.672 51.7567 153.612 52.3487 153.611 52.9436C153.608 54.1509 153.586 55.3596 153.621 56.5669C153.636 57.0918 153.321 57.0466 153.01 57.0087C152.711 56.9737 152.241 57.2406 152.244 56.5859C152.257 54.1917 152.259 51.7975 152.243 49.4033C152.239 48.8069 152.643 49.0009 152.941 48.9702C153.269 48.9367 153.544 48.963 153.478 49.4193C153.452 49.5987 153.474 49.7839 153.474 50.1163C154.483 48.7617 155.155 48.5357 156.245 49.0388C156.542 49.1758 156.613 49.3216 156.485 49.6176C156.284 50.0769 156.241 50.6106 155.443 50.2752Z" fill="white"/>
<path d="M156.245 49.0371C155.154 48.5341 154.483 48.7601 153.474 50.1147C153.474 49.7822 153.452 49.5971 153.479 49.4177C153.544 48.9613 153.269 48.9351 152.942 48.9686C152.643 48.9992 152.239 48.8053 152.243 49.4017C152.26 51.7959 152.258 54.1901 152.244 56.5842C152.242 57.2389 152.71 56.9706 153.01 57.0071C153.321 57.0435 153.636 57.0902 153.621 56.5653C153.588 55.358 153.61 54.1507 153.611 52.9419C153.611 52.3456 153.672 51.755 153.864 51.1893C154.109 50.4719 154.791 49.9995 155.443 50.2736C156.239 50.609 156.284 50.0753 156.485 49.616C156.615 49.32 156.543 49.1742 156.245 49.0371Z" fill="#424497"/>
<path d="M160.662 48.0939C161.019 48.4891 161.526 48.8157 162.248 48.8157C162.56 48.8157 162.896 48.7501 163.247 48.6217C163.276 48.6115 163.303 48.5984 163.331 48.5853C163.522 48.4891 163.664 48.3155 163.721 48.107C163.787 47.8679 163.734 47.6127 163.579 47.4203C163.432 47.2395 163.287 47.0587 163.143 46.8793C162.787 46.4361 162.42 45.9782 162.043 45.535C161.78 45.2258 161.283 45.0698 160.567 45.0698C159.575 45.0698 159.298 45.411 159.208 45.5218C158.841 45.9738 158.489 46.4434 158.149 46.8968C158.012 47.0791 157.875 47.2613 157.737 47.4436C157.587 47.6404 157.542 47.8971 157.615 48.1333C157.687 48.3695 157.869 48.5561 158.104 48.6334C158.109 48.6349 158.117 48.6378 158.122 48.6392C158.456 48.7486 158.773 48.804 159.068 48.804C159.699 48.804 160.231 48.5649 160.663 48.0925L160.662 48.0939ZM159.799 46.0059C159.995 45.7639 161.251 45.7887 161.46 46.0336C161.978 46.6416 162.47 47.2701 162.983 47.9029C161.784 48.3418 161.129 47.7658 160.668 46.5877C160.221 47.7571 159.56 48.3141 158.344 47.9087C158.831 47.2672 159.298 46.6242 159.8 46.0059H159.799Z" fill="white"/>
<path d="M160.668 46.5875C161.129 47.7657 161.784 48.3416 162.983 47.9027C162.47 47.2699 161.978 46.64 161.46 46.0334C161.252 45.7885 159.996 45.7637 159.799 46.0057C159.298 46.624 158.83 47.2684 158.342 47.9085C159.559 48.3124 160.22 47.7569 160.666 46.5875H160.668Z" fill="#454798"/>
<path d="M93.293 31.648C93.3381 31.6174 93.3832 31.5839 93.4269 31.5445C93.814 31.1946 93.814 30.7222 93.814 30.1243C93.814 29.4551 93.814 29.0118 93.4647 28.656C93.1096 28.293 92.6701 28.293 92.0065 28.293C91.2905 28.293 90.8568 28.293 90.4973 28.6196C90.1029 28.9768 90.1029 29.4434 90.1029 30.0908C90.1029 30.7251 90.1029 31.1844 90.4915 31.5372C90.525 31.5679 90.5584 31.5941 90.5919 31.6189C90.9281 31.8609 91.3356 31.8609 91.973 31.8609C92.5755 31.8609 92.967 31.8609 93.293 31.6466V31.648ZM92.0065 29.0585C92.7021 29.0585 93.05 29.4138 93.05 30.1243C93.05 30.7727 92.691 31.0969 91.973 31.0969C91.2356 31.0969 90.867 30.7615 90.867 30.0908C90.867 29.4026 91.2468 29.0585 92.0065 29.0585Z" fill="white"/>
<path d="M91.973 31.0968C92.691 31.0968 93.05 30.7726 93.05 30.1242C93.05 29.4136 92.7021 29.0583 92.0065 29.0583C91.2468 29.0583 90.8669 29.4025 90.8669 30.0907C90.8669 30.7614 91.2356 31.0968 91.973 31.0968Z" fill="#00A759"/>
</g>
<defs>
<clipPath id="clip0_21_2440">
<rect width="191" height="69" fill="white"/>
</clipPath>
</defs>
</svg>
